<?xml version="1.0" standalone="no"?>
<!DOCTYPE svg PUBLIC "-//W3C//DTD SVG 1.1//EN" "http://www.w3.org/Graphics/SVG/1.1/DTD/svg11.dtd" >
<svg xmlns="http://www.w3.org/2000/svg">
<defs>
  <font id="Allianz-Icons" horiz-adv-x="1001">
    <font-face font-family="Allianz-Icons"
      units-per-em="1001" ascent="1001"
      descent="0" />
    <missing-glyph horiz-adv-x="0" />
    <glyph glyph-name="c-icon--arrow-up"
      unicode="&#xE900;"
      horiz-adv-x="1001" d="M696.821125 655.1127916666667L529.9877916666667 821.9461249999999C526.1089166666667 825.825 521.4792916666667 828.9114166666666 516.390875 830.9968333333334C506.1723333333333 835.209375 494.74425 835.209375 484.5257083333334 830.9968333333334C479.4372916666667 828.9114166666666 474.8076666666667 825.825 470.9287916666667 821.9461249999999L304.0954583333334 655.1127916666667C296.296 647.271625 291.8749166666667 636.6777083333334 291.8749166666667 625.625C291.8749166666667 602.727125 310.7270833333334 583.8749583333333 333.6249583333333 583.8749583333333C344.7193750000001 583.8749583333333 355.3132916666667 588.2960416666667 363.1544583333334 596.1372083333333L458.7916666666667 691.7744166666666L458.7916666666667 208.5416666666666C458.7916666666667 185.6437916666666 477.6021250000001 166.8333333333333 500.5 166.8333333333333C523.397875 166.8333333333333 542.2083333333334 185.6437916666666 542.2083333333334 208.5416666666666L542.2083333333334 691.7744166666666L637.8455416666667 596.1372083333333C645.6032916666667 588.6297083333333 656.030375 584.4171666666666 666.8328333333334 584.4171666666666C689.6890000000001 584.4171666666666 708.5411666666666 603.2693333333334 708.5411666666666 626.1255C708.5411666666666 636.9279583333333 704.3286250000001 647.3550416666667 696.821125 655.1127916666667z" />
    <glyph glyph-name="c-icon--arrow-down"
      unicode="&#xE901;"
      horiz-adv-x="1001" d="M696.821125 404.8627916666667A41.708333333333336 41.708333333333336 0 0 1 637.8455416666667 404.8627916666667L542.2083333333334 309.2255833333334V792.4583333333333A41.708333333333336 41.708333333333336 0 0 1 458.7916666666667 792.4583333333333V309.2255833333334L363.1544583333334 404.8627916666667A41.708333333333336 41.708333333333336 0 1 1 304.1788750000001 345.8872083333333L471.0122083333334 179.053875A41.708333333333336 41.708333333333336 0 0 1 530.0712083333334 179.053875L696.9045416666669 345.8872083333333A41.708333333333336 41.708333333333336 0 0 1 696.821125 404.8627916666667z" />
    <glyph glyph-name="c-icon--arrow-left"
      unicode="&#xE902;"
      horiz-adv-x="1001" d="M792.4583333333334 542.2083333333333H309.2255833333334L404.8627916666668 637.88725A41.708333333333336 41.708333333333336 0 1 1 345.8872083333333 696.8628333333334L179.053875 530.0295A41.708333333333336 41.708333333333336 0 0 1 170.0031666666667 484.5674166666666A41.708333333333336 41.708333333333336 0 0 1 179.053875 470.9287916666666L345.8872083333333 304.0954583333334A41.708333333333336 41.708333333333336 0 0 1 404.8627916666666 363.0710416666666L309.2255833333334 458.7916666666666H792.4583333333334A41.708333333333336 41.708333333333336 0 0 1 792.4583333333334 542.2083333333333z" />
    <glyph glyph-name="c-icon--arrow-right"
      unicode="&#xE903;"
      horiz-adv-x="1001" d="M830.955125 484.5674166666666A41.95858333333334 41.95858333333334 0 0 1 821.9044166666667 530.0712083333333L655.0710833333334 696.9045416666667A41.708333333333336 41.708333333333336 0 1 1 596.0955 637.9289583333333L691.7744166666666 542.2083333333333H208.5416666666667A41.708333333333336 41.708333333333336 0 0 1 208.5416666666667 458.7916666666666H691.7744166666666L596.1372083333333 363.1544583333333A41.708333333333336 41.708333333333336 0 1 1 655.1127916666667 304.178875L821.946125 471.0122083333333A41.29125 41.29125 0 0 1 830.955125 484.5674166666666z" />
    <glyph glyph-name="c-icon--arrow-up-slim"
      unicode="&#xE904;"
      horiz-adv-x="1001" d="M268.8232421875 729.5565360416666C268.8232421875 725.6463797916666 268.8232421875 721.7362235416666 272.7333984375 716.8485282291666C281.53125 709.0282157291666 294.2392578125 709.0282157291666 302.0595703125 712.9383719791666L473.12890625 850.7713797916666L478.0166015625 103.9315360416666C478.0166015625 92.2010672916666 485.8369140625 83.4032157291666 498.544921875 83.4032157291666C510.2753906250001 83.4032157291666 519.0732421875 92.2010672916666 519.0732421875 103.9315360416666L519.0732421875 854.6815360416666L694.052734375 712.9383719791666C702.8505859375 705.1180594791666 715.55859375 709.0282157291666 723.37890625 716.8485282291666C732.1767578125 725.6463797916666 727.2890625 738.3543876041666 719.46875 746.1747001041666L511.2529296875001 913.3338797916666C502.4550781250001 921.1541922916666 485.8369140625 917.2440360416666 478.0166015625 909.4237235416666L272.7333984375 746.1747001041666C272.7333984375 744.2196219791666 271.755859375 741.2870047916666 270.7783203125 738.3543876041666C269.80078125 734.4442313541666 268.8232421875 731.5116141666666 268.8232421875 729.5565360416666z" />
    <glyph glyph-name="c-icon--arrow-down-slim"
      unicode="&#xE905;"
      horiz-adv-x="1001" d="M268.8232421875 271.4435682291667C268.8232421875 275.3537244791667 268.8232421875 280.2414197916667 272.7333984375 284.1515760416667C281.53125 291.9718885416667 294.2392578125 291.9718885416667 302.0595703125 288.0617322916667L473.12890625 150.2287244791667L478.0166015625 897.0685682291667C478.0166015625 909.7765760416665 485.8369140625 917.5968885416665 498.544921875 917.5968885416665C510.2753906250001 917.5968885416665 519.0732421875 909.7765760416665 519.0732421875 897.0685682291667L519.0732421875 146.3185682291667L694.052734375 288.0617322916667C702.8505859375 296.8595838541667 715.55859375 291.9718885416667 723.37890625 284.1515760416667C732.1767578125 276.3312635416667 727.2890625 262.6457166666667 719.46875 254.8254041666667L511.2529296875001 87.6662244791667C502.4550781250001 79.8459119791667 485.8369140625 83.7560682291667 478.0166015625 92.5539197916667L272.7333984375 254.8254041666667C272.7333984375 256.7804822916667 271.755859375 259.7130994791667 270.7783203125 263.6232557291667C269.80078125 266.5558729166667 268.8232421875 269.4884901041667 268.8232421875 271.4435682291667z" />
    <glyph glyph-name="c-icon--arrow-left-slim"
      unicode="&#xE906;"
      horiz-adv-x="1001" d="M916.7491666666668 521.3541666666666H133.758625L265.01475 652.5685833333333A20.854166666666668 20.854166666666668 0 1 1 235.48525 682.056375L68.6519166666667 515.2230416666666A20.854166666666668 20.854166666666668 0 0 1 64.1474166666667 492.492A20.395374999999998 20.395374999999998 0 0 1 68.6519166666667 485.6935416666666L235.48525 318.8602083333334A20.854166666666668 20.854166666666668 0 0 1 265.01475 348.3480000000001L133.758625 479.6458333333333H916.7491666666668A20.854166666666668 20.854166666666668 0 1 1 916.7491666666668 521.3541666666666z" />
    <glyph glyph-name="c-icon--arrow-right-slim"
      unicode="&#xE907;"
      horiz-adv-x="1001" d="M936.0184166666668 492.5337083333333A20.854166666666668 20.854166666666668 0 0 1 936.0184166666668 508.4662916666666A20.270249999999997 20.270249999999997 0 0 1 931.4722083333334 515.2647499999999L764.638875 682.0980833333333A20.854166666666668 20.854166666666668 0 1 1 735.1510833333333 652.6102916666666L866.4072083333334 521.3541666666666H83.4166666666667A20.854166666666668 20.854166666666668 0 0 1 83.4166666666667 479.6458333333333H866.4072083333334L735.1927916666666 348.3897083333333A20.854166666666668 20.854166666666668 0 0 1 764.6805833333334 318.9019166666667L931.5139166666665 485.73525A19.894875 19.894875 0 0 1 936.0184166666668 492.5337083333333z" />
    <glyph glyph-name="c-icon--paperclip"
      unicode="&#xE908;"
      horiz-adv-x="1001" d="M500.5 50.05A221.26270833333334 221.26270833333334 0 0 0 279.4458333333334 271.1041666666667V792.4583333333333A158.49166666666667 158.49166666666667 0 0 0 596.4291666666667 792.4583333333333V354.5208333333333A95.92916666666666 95.92916666666666 0 0 0 404.5708333333334 354.5208333333333V708.45775A33.36666666666667 33.36666666666667 0 0 0 471.3041666666667 708.45775V354.5208333333333A29.195833333333326 29.195833333333326 0 0 1 529.6958333333334 354.5208333333333V792.4583333333333A91.75833333333334 91.75833333333334 0 1 1 346.1791666666668 792.4583333333333V271.1041666666667A154.32083333333333 154.32083333333333 0 0 1 654.8208333333334 271.1041666666667V708.45775A33.36666666666667 33.36666666666667 0 0 0 721.5541666666668 708.45775V271.1041666666667A221.26270833333334 221.26270833333334 0 0 0 500.5 50.05z" />
    <glyph glyph-name="c-icon--chevron-up"
      unicode="&#xE909;"
      horiz-adv-x="1001" d="M820.2777916666668 404.8627916666667L528.3194583333334 696.8211249999999A41.708333333333336 41.708333333333336 0 0 1 469.3438750000001 696.8211249999999L177.3855416666668 404.8627916666667A41.708333333333336 41.708333333333336 0 1 1 236.3611250000001 345.8872083333333L498.8316666666667 608.35775L761.3022083333334 345.8872083333333A41.708333333333336 41.708333333333336 0 0 1 820.2777916666668 404.8627916666666z" />
    <glyph glyph-name="c-icon--chevron-down"
      unicode="&#xE90A;"
      horiz-adv-x="1001" d="M823.6144583333333 655.1127916666667C807.4316250000002 671.295625 780.8217083333334 671.295625 764.638875 655.1127916666667L502.1683333333334 392.64225L239.6977916666667 655.1127916666667C231.9400416666667 662.6202916666666 221.5129583333333 666.8328333333333 210.7105 666.8328333333333C187.8543333333333 666.8328333333333 169.0021666666667 647.9806666666666 169.0021666666667 625.1244999999999C169.0021666666667 614.3220416666666 173.2147083333333 603.8949583333333 180.7222083333334 596.1372083333333L472.6805416666667 304.178875C488.863375 287.9960416666667 515.4732916666667 287.9960416666667 531.656125 304.178875L823.6144583333333 596.1372083333333C839.7972916666668 612.3200416666666 839.7972916666668 638.9299583333334 823.6144583333333 655.1127916666667z" />
    <glyph glyph-name="c-icon--chevron-left"
      unicode="&#xE90B;"
      horiz-adv-x="1001" d="M392.64225 498.8316666666666L655.1127916666667 761.3022083333333C663.2459166666666 769.143375 667.8338333333334 779.9875416666666 667.8338333333334 791.2905000000001C667.8338333333334 814.188375 649.023375 832.9988333333333 626.1255000000001 832.9988333333333C614.8225416666667 832.9988333333333 603.978375 828.4109166666667 596.1372083333333 820.2777916666666L304.178875 528.3194583333333C287.9960416666667 512.136625 287.9960416666667 485.5267083333333 304.178875 469.343875L596.1372083333333 177.3855416666667C603.8949583333333 169.8780416666666 614.3220416666667 165.6655 625.1245 165.6655C647.9806666666667 165.6655 666.8328333333334 184.5176666666666 666.8328333333334 207.3738333333333C666.8328333333334 218.1762916666667 662.6202916666667 228.6033750000001 655.1127916666667 236.361125L392.64225 498.8316666666666z" />
    <glyph glyph-name="c-icon--chevron-right"
      unicode="&#xE90C;"
      horiz-adv-x="1001" d="M696.821125 531.656125L404.8627916666668 823.6144583333333C397.1050416666668 831.1219583333333 386.6779583333334 835.3344999999999 375.8755000000001 835.3344999999999C353.0193333333334 835.3344999999999 334.1671666666668 816.4823333333334 334.1671666666668 793.6261666666667C334.1671666666668 782.8237083333333 338.3797083333334 772.396625 345.8872083333333 764.638875L608.35775 502.1683333333333L345.8872083333333 239.6977916666666C337.7540833333334 231.856625 333.1661666666667 221.0124583333333 333.1661666666667 209.7094999999999C333.1661666666667 186.8116249999999 351.976625 168.0011666666666 374.8745 168.0011666666666C386.1774583333334 168.0011666666666 397.0216250000001 172.5890833333334 404.8627916666668 180.7222083333333L696.821125 472.6805416666666C713.0039583333333 488.863375 713.0039583333333 515.4732916666667 696.821125 531.656125z" />
    <glyph glyph-name="c-icon--bookmark-o"
      unicode="&#xE90D;"
      horiz-adv-x="1001" d="M709.0416666666667 809.1416666666667C718.1757916666668 809.1416666666667 725.725 801.5924583333333 725.725 792.4583333333333L725.725 226.3094166666666L526.7762500000001 311.6029583333333L500.5 322.8642083333333L474.22375 311.6029583333333L275.275 226.3094166666666L275.275 792.4583333333333C275.275 801.5924583333333 282.8242083333334 809.1416666666667 291.9583333333334 809.1416666666667L709.0416666666667 809.1416666666667M709.0416666666667 875.875L291.9583333333334 875.875C246.2042916666667 875.875 208.5416666666667 838.212375 208.5416666666667 792.4583333333333L208.5416666666667 125.125L500.5 250.25L792.4583333333334 125.125L792.4583333333334 792.4583333333333C792.4583333333334 838.212375 754.7957083333334 875.875 709.0416666666667 875.875z" />
    <glyph glyph-name="c-icon--calendar"
      unicode="&#xE90E;"
      horiz-adv-x="1001" d="M875.875 875.875L792.4583333333334 875.875L792.4583333333334 917.5833333333334C792.4583333333334 940.4812083333334 773.647875 959.2916666666666 750.75 959.2916666666666C727.8521250000001 959.2916666666666 709.0416666666667 940.4812083333334 709.0416666666667 917.5833333333334L709.0416666666667 875.875L291.9583333333334 875.875L291.9583333333334 917.5833333333334C291.9583333333334 940.4812083333334 273.1478750000001 959.2916666666666 250.25 959.2916666666666C227.352125 959.2916666666666 208.5416666666667 940.4812083333334 208.5416666666667 917.5833333333334L208.5416666666667 875.875L125.125 875.875C102.227125 875.875 83.4166666666667 857.0645416666666 83.4166666666667 834.1666666666666L83.4166666666667 125.125C83.4166666666667 102.227125 102.227125 83.4166666666666 125.125 83.4166666666666L875.875 83.4166666666666C898.772875 83.4166666666666 917.5833333333334 102.227125 917.5833333333334 125.125L917.5833333333334 834.1666666666666C917.5833333333334 857.0645416666666 898.772875 875.875 875.875 875.875zM850.85 150.15L150.15 150.15L150.15 667.3333333333333L850.85 667.3333333333333L850.85 150.15zM383.7166666666667 375.375C383.7166666666667 398.3979999999999 365.0313333333334 417.0833333333333 342.0083333333334 417.0833333333333L258.5916666666667 417.0833333333333C235.5686666666667 417.0833333333333 216.8833333333334 398.3979999999999 216.8833333333334 375.375L216.8833333333334 291.9583333333333C216.8833333333334 268.9353333333334 235.5686666666667 250.25 258.5916666666667 250.25L342.0083333333334 250.25C365.0313333333334 250.25 383.7166666666667 268.9353333333334 383.7166666666667 291.9583333333333L383.7166666666667 375.375z" />
    <glyph glyph-name="c-icon--arrow-upload"
      unicode="&#xE90F;"
      horiz-adv-x="1001" d="M333.6666666666667 626.8345416666666C344.7193750000001 626.8345416666666 355.355 631.255625 363.1544583333334 639.0550833333333L458.7916666666667 734.6922916666667L458.7916666666667 334.8762083333333C458.7916666666667 311.9783333333334 477.6021250000001 293.167875 500.5 293.167875C523.397875 293.167875 542.2083333333334 311.9783333333334 542.2083333333334 334.8762083333333L542.2083333333334 734.6922916666667L637.8455416666667 639.0550833333333C645.6032916666667 631.5475833333333 656.030375 627.3350416666667 666.8328333333334 627.3350416666667C689.6890000000001 627.3350416666667 708.5411666666666 646.1872083333333 708.5411666666666 669.043375C708.5411666666666 679.8458333333333 704.3286250000001 690.2729166666666 696.821125 698.0306666666667L529.9877916666667 864.864C526.1089166666667 868.742875 521.4792916666667 871.8292916666667 516.390875 873.9147083333334C506.1723333333333 878.12725 494.74425 878.12725 484.5257083333334 873.9147083333334C479.4372916666667 871.8292916666667 474.8076666666667 868.742875 470.9287916666667 864.864L304.0954583333334 698.0306666666667C296.296 690.2312083333334 291.8749166666667 679.5955833333333 291.8749166666667 668.542875C291.8749166666667 645.645 310.7270833333334 626.8345416666666 333.58325 626.8345416666666C333.6249583333333 626.8345416666666 333.6249583333333 626.8345416666666 333.6666666666667 626.8345416666666zM834.1666666666667 325.3250000000001C815.8567083333334 325.3250000000001 800.8000000000001 310.2682916666667 800.8000000000001 291.9583333333333L800.8000000000001 200.1999999999999L200.2 200.1999999999999L200.2 291.9583333333333C200.2 310.2682916666667 185.1432916666667 325.3250000000001 166.8333333333334 325.3250000000001C148.523375 325.3250000000001 133.4666666666667 310.2682916666667 133.4666666666667 291.9583333333333L133.4666666666667 166.8333333333333C133.4666666666667 148.523375 148.523375 133.4666666666666 166.8333333333334 133.4666666666666L834.1666666666667 133.4666666666666C852.476625 133.4666666666666 867.5333333333334 148.523375 867.5333333333334 166.8333333333333L867.5333333333334 291.9583333333333C867.5333333333334 310.2682916666667 852.476625 325.3250000000001 834.1666666666667 325.3250000000001z" />
    <glyph glyph-name="c-icon--phone-o"
      unicode="&#xE910;"
      horiz-adv-x="1001" d="M741.4490416666667 91.7583333333332C638.3043333333335 91.7583333333332 480.9387916666667 182.6407916666665 331.6646666666668 331.9149166666666C166.8333333333334 496.7879583333333 68.068 686.0186666666666 97.0135833333333 781.6975833333333C111.736625 830.3712083333334 192.94275 893.1839583333333 245.370125 906.3220833333334A71.19612500000001 71.19612500000001 0 0 0 316.9833333333334 890.514625A473.8066666666667 473.8066666666667 0 0 0 437.061625 687.7287083333333A88.54679166666668 88.54679166666668 0 0 0 401.526125 604.0617916666667L395.019625 597.7638333333334C392.5588333333334 595.3030416666668 388.0960416666666 591.1739166666666 382.9659166666667 586.586C380.7553749999999 584.5840000000001 378.378 582.4151666666667 376.12575 580.4131666666667A1216.6737916666666 1216.6737916666666 0 0 1 580.2463333333334 376.250875C582.4151666666667 378.5865416666667 584.4171666666666 381.0473333333333 586.586 383.3412916666666C591.1322083333333 388.3462916666666 595.1779166666666 392.7256666666666 597.6387083333333 395.14475L603.85325 401.6095416666666A89.25583333333333 89.25583333333333 0 0 0 687.5201666666667 437.2701666666667A474.098625 474.098625 0 0 0 890.3895 317.1501666666666A71.61320833333335 71.61320833333335 0 0 0 906.1969583333334 245.5786666666666V245.5786666666666A253.37812499999998 253.37812499999998 0 0 0 781.6141666666668 97.2221249999999A140.55708333333334 140.55708333333334 0 0 0 741.4490416666667 91.7583333333332zM269.8112083333334 843.3425C270.3117083333334 842.716875 267.2252916666667 843.0088333333333 261.4695416666667 841.5907500000001A208.54166666666669 208.54166666666669 0 0 1 160.785625 762.3449166666667C142.267125 701.0336666666667 225.3918333333334 532.3234583333333 378.753375 378.9202083333334C545.3364583333333 212.4205416666666 700.4914583333334 142.0585833333332 762.136375 160.9524583333333A203.62008333333333 203.62008333333333 0 0 1 841.3822083333333 261.7197916666668A22.188833333333335 22.188833333333335 0 0 1 842.216375 271.1458750000001A413.788375 413.788375 0 0 1 674.5071666666665 371.6629583333334C669.7941249999999 372.8725000000001 665.2896249999999 369.6609583333334 652.4851666666666 355.8972083333333C649.6907083333332 352.9359166666667 646.9796666666666 350.0997500000001 644.1434999999999 347.5555416666668C642.266625 345.720375 639.3053333333332 342.3420000000001 635.8018333333333 338.58825C616.240625 316.9416250000002 606.606 306.05575 590.5482916666666 304.1788750000001C577.2016249999999 302.8442083333335 549.674125 300.0080416666667 423.9235 425.6752500000001C299.5492500000001 550.55 302.5939583333333 577.8272499999999 304.0537500000001 590.8819583333334C305.7637916666667 606.8145416666666 316.5662500000001 616.616 338.212875 636.1354999999999C342.0500416666667 639.5555833333333 345.470125 642.6002916666666 347.3052916666667 644.4771666666666C350.0163333333333 647.1882083333333 352.8942083333334 649.8992499999999 355.8555 652.8188333333333C369.494125 665.5815833333331 372.5388333333334 669.9192499999999 371.6212500000001 674.7991249999999A412.537125 412.537125 0 0 1 269.8112083333334 843.3425zM591.8412500000001 369.8695z" />
    <glyph glyph-name="c-icon--check"
      unicode="&#xE911;"
      horiz-adv-x="1001" d="M381.255875 250.25A41.708333333333336 41.708333333333336 0 0 0 351.7680833333333 262.4705416666666L173.173 441.0239166666666A41.708333333333336 41.708333333333336 0 0 0 232.1485833333333 499.9994999999999L381.255875 350.9339166666665L768.8514166666666 738.5294583333332A41.708333333333336 41.708333333333336 0 0 0 827.827 679.5538749999998L410.7436666666667 262.4705416666666A41.708333333333336 41.708333333333336 0 0 0 381.255875 250.25z" />
    <glyph glyph-name="c-icon--check-circle"
      unicode="&#xE912;"
      horiz-adv-x="1001" d="M500.5 959.2916666666666A458.7916666666667 458.7916666666667 0 1 1 959.2916666666669 500.5A458.7916666666667 458.7916666666667 0 0 1 500.5 959.2916666666666zM732.5234583333333 622.8722499999999L440.565125 330.9139166666665A33.36666666666667 33.36666666666667 0 0 0 393.4347083333334 330.9139166666665L268.3097083333334 456.0389166666665A33.36666666666667 33.36666666666667 0 1 0 315.440125 503.1693333333332L417.0833333333334 401.7763749999998L685.4764583333333 670.0860833333331A33.36666666666667 33.36666666666667 0 0 0 732.606875 622.9139583333331z" />
    <glyph glyph-name="c-icon--close"
      unicode="&#xE913;"
      horiz-adv-x="1001" d="M559.4755833333334 500.5L780.2377916666668 721.2622083333333A41.708333333333336 41.708333333333336 0 1 1 721.2622083333333 780.2377916666667L500.5 559.4755833333334L279.7377916666667 780.2377916666667A41.708333333333336 41.708333333333336 0 0 1 220.7622083333334 721.2622083333333L441.5244166666667 500.5L220.7622083333334 279.7377916666667A41.708333333333336 41.708333333333336 0 1 1 279.7377916666667 220.7622083333332L500.5 441.5244166666667L721.2622083333333 220.7622083333332A41.708333333333336 41.708333333333336 0 0 1 780.2377916666668 279.7377916666667z" />
    <glyph glyph-name="c-icon--close-circle"
      unicode="&#xE914;"
      horiz-adv-x="1001" d="M500.5 959.2916666666666A458.7916666666667 458.7916666666667 0 1 1 959.2916666666669 500.5A458.7916666666667 458.7916666666667 0 0 1 500.5 959.2916666666666zM690.8985416666668 357.2735833333334A33.36666666666667 33.36666666666667 0 1 0 643.7681250000002 310.1014583333335L500.5 453.3278749999999L357.231875 310.1014583333332A33.36666666666667 33.36666666666667 0 1 0 310.1014583333333 357.2735833333333L453.327875 500.5L310.1014583333333 643.768125A33.36666666666667 33.36666666666667 0 0 0 357.231875 690.94025L500.5 547.672125L643.768125 690.94025A33.36666666666667 33.36666666666667 0 0 0 690.8985416666668 643.768125L547.672125 500.5z" />
    <glyph glyph-name="c-icon--credit-card-o"
      unicode="&#xE915;"
      horiz-adv-x="1001" d="M834.1666666666667 834.1666666666666H166.8333333333334A83.66691666666667 83.66691666666667 0 0 1 83.4166666666667 750.75V250.25A83.66691666666667 83.66691666666667 0 0 1 166.8333333333334 166.8333333333333H834.1666666666667A83.66691666666667 83.66691666666667 0 0 1 917.5833333333334 250.25V750.75A83.66691666666667 83.66691666666667 0 0 1 834.1666666666667 834.1666666666666zM166.8333333333334 767.4333333333334H834.1666666666667A16.891875000000002 16.891875000000002 0 0 0 850.85 750.75V667.3333333333333H150.15V750.75A16.891875000000002 16.891875000000002 0 0 0 166.8333333333334 767.4333333333334zM834.1666666666667 233.5666666666667H166.8333333333334A16.891875000000002 16.891875000000002 0 0 0 150.15 250.25V500.5H850.85V250.25A16.891875000000002 16.891875000000002 0 0 0 834.1666666666667 233.5666666666667zM750.75 367.0333333333333H667.3333333333334A33.36666666666667 33.36666666666667 0 0 1 667.3333333333334 300.3H750.75A33.36666666666667 33.36666666666667 0 0 1 750.75 367.0333333333333z" />
    <glyph glyph-name="c-icon--trash"
      unicode="&#xE916;"
      horiz-adv-x="1001" d="M792.4583333333334 834.1666666666666H625.625A41.82970458333333 41.82970458333333 0 0 1 583.9166666666667 875.875H417.0833333333334A41.82970458333333 41.82970458333333 0 0 1 375.375 834.1666666666666H208.5416666666667A41.708333333333336 41.708333333333336 0 0 1 208.5416666666667 750.75H792.4583333333334A41.708333333333336 41.708333333333336 0 0 1 792.4583333333334 834.1666666666666zM208.5416666666667 208.5416666666666A125.49662125 125.49662125 0 0 1 333.6666666666667 83.4166666666666H667.3333333333334A125.49662125 125.49662125 0 0 1 792.4583333333334 208.5416666666666V709.0416666666666H208.5416666666667zM621.0224854166667 542.1983233333333A27.126682916666663 27.126682916666663 0 0 0 675.27585125 542.1983233333333V250.2399900000001A27.126682916666663 27.126682916666663 0 1 0 621.0224854166667 250.2399900000001zM475.04331875 542.1983233333333A27.126682916666663 27.126682916666663 0 0 0 529.2966845833333 542.1983233333333V250.2399900000001A27.126682916666663 27.126682916666663 0 0 0 475.04331875 250.2399900000001zM329.0641520833334 542.1983233333333A27.126682916666663 27.126682916666663 0 0 0 383.3175179166667 542.1983233333333V250.2399900000001A27.126682916666663 27.126682916666663 0 0 0 329.0641520833334 250.2399900000001z" />
    <glyph glyph-name="c-icon--download"
      unicode="&#xE917;"
      horiz-adv-x="1001" d="M834.1666666666667 324.1571666666665C815.8567083333334 324.1571666666665 800.8000000000001 309.1004583333334 800.8000000000001 290.7905000000001L800.8000000000001 199.0321666666665L200.2 199.0321666666665L200.2 290.7905000000001C200.2 309.1004583333334 185.1432916666667 324.1571666666665 166.8333333333334 324.1571666666665C148.523375 324.1571666666665 133.4666666666667 309.1004583333334 133.4666666666667 290.7905000000001L133.4666666666667 165.6655C133.4666666666667 147.3555416666667 148.523375 132.2988333333333 166.8333333333334 132.2988333333333L834.1666666666667 132.2988333333333C852.476625 132.2988333333333 867.5333333333334 147.3555416666667 867.5333333333334 165.6655L867.5333333333334 290.7905000000001C867.5333333333334 309.1004583333334 852.476625 324.1571666666665 834.1666666666667 324.1571666666665zM470.9705 303.0944583333333C478.8116666666667 295.2532916666667 489.4055833333334 290.8322083333333 500.5 290.8322083333333C511.5944166666667 290.8322083333333 522.1883333333334 295.2532916666667 530.0295 303.0944583333333L696.8628333333334 469.9277916666666C704.3703333333334 477.6855416666666 708.5828750000001 488.112625 708.5828750000001 498.9150833333333C708.5828750000001 521.77125 689.7307083333334 540.6234166666666 666.8745416666667 540.6234166666666C656.0720833333334 540.6234166666666 645.6450000000001 536.410875 637.8872500000001 528.9033749999999L542.2083333333334 433.2244583333334L542.2083333333334 833.0405416666666C542.2083333333334 855.9384166666666 523.397875 874.748875 500.5 874.748875C477.6021250000001 874.748875 458.7916666666667 855.9384166666666 458.7916666666667 833.0405416666666L458.7916666666667 433.2244583333334L363.1544583333334 528.8616666666667C355.3967083333334 536.3691666666666 344.9696250000001 540.5817083333334 334.1671666666668 540.5817083333334C311.3110000000001 540.5817083333334 292.4588333333334 521.7295416666666 292.4588333333334 498.873375C292.4588333333334 488.0709166666667 296.671375 477.6438333333333 304.178875 469.8860833333333L470.9705 303.0944583333333z" />
    <glyph glyph-name="c-icon--exclamation-circle"
      unicode="&#xE918;"
      horiz-adv-x="1001" d="M959.2916666666669 500.5A458.7916666666667 458.7916666666667 0 1 1 281.8232083333334 97.097Q301.2592916666667 86.461375 321.9049166666667 77.7443333333333A460.33487500000007 460.33487500000007 0 0 1 679.0950833333334 77.7443333333333Q699.6990000000001 86.5030833333334 719.1767916666666 97.097A458.4162916666666 458.4162916666666 0 0 1 959.2916666666669 500.5zM542.2083333333334 446.2791666666666A29.195833333333326 29.195833333333326 0 0 0 513.0125 417.0833333333333H487.9875000000001A29.195833333333326 29.195833333333326 0 0 0 458.7916666666667 446.2791666666666V721.5541666666666A29.195833333333326 29.195833333333326 0 0 0 487.9875000000001 750.75H513.0125A29.195833333333326 29.195833333333326 0 0 0 542.2083333333334 721.5541666666666zM546.3791666666667 291.9583333333333A41.708333333333336 41.708333333333336 0 0 0 504.6708333333333 250.25H496.3291666666667A41.708333333333336 41.708333333333336 0 0 0 454.6208333333334 291.9583333333333V300.3A41.708333333333336 41.708333333333336 0 0 0 496.3291666666667 342.0083333333332H504.6708333333333A41.708333333333336 41.708333333333336 0 0 0 546.3791666666667 300.3z" />
    <glyph glyph-name="c-icon--exclamation-circle-o"
      unicode="&#xE919;"
      horiz-adv-x="1001" d="M959.2916666666669 500.5A458.7916666666667 458.7916666666667 0 1 1 500.5 41.7083333333333A458.7916666666667 458.7916666666667 0 0 1 959.2916666666669 500.5zM892.5583333333333 500.5A392.05833333333345 392.05833333333345 0 1 0 500.5 892.5583333333333A392.51712499999996 392.51712499999996 0 0 0 892.5583333333333 500.5zM487.9875 750.75H513.0124999999999A29.195833333333326 29.195833333333326 0 0 0 542.2083333333333 721.5541666666666V446.2791666666666A29.195833333333326 29.195833333333326 0 0 0 513.0124999999999 417.0833333333333H487.9875A29.195833333333326 29.195833333333326 0 0 0 458.7916666666667 446.2791666666666V721.5541666666666A29.195833333333326 29.195833333333326 0 0 0 487.9875 750.75zM496.3291666666667 342.0083333333332H504.6708333333334A41.708333333333336 41.708333333333336 0 0 0 546.3791666666667 300.3V291.9583333333333A41.708333333333336 41.708333333333336 0 0 0 504.6708333333334 250.25H496.3291666666668A41.708333333333336 41.708333333333336 0 0 0 454.6208333333335 291.9583333333333V300.3A41.708333333333336 41.708333333333336 0 0 0 496.3291666666668 342.0083333333332z" />
    <glyph glyph-name="c-icon--exclamation-triangle"
      unicode="&#xE91A;"
      horiz-adv-x="1001" d="M958.4575 129.2958333333334L529.6958333333333 921.7541666666666C523.3144583333334 931.7641666666668 512.2200416666667 937.8535833333332 500.3331666666667 937.8535833333332C488.4462916666667 937.8535833333332 477.3518750000001 931.7641666666668 470.9705 921.7541666666666L42.5425 129.2958333333334C39.914875 124.4159583333333 38.4967916666667 118.9521666666666 38.4967916666667 113.4049583333333C38.4967916666667 95.1367083333332 53.4700833333333 80.1217083333332 71.7383333333333 80.0382916666666L929.0948333333334 80.0382916666666C947.3630833333332 80.1217083333332 962.336375 95.1367083333332 962.336375 113.4049583333333C962.336375 118.9521666666666 960.9182916666668 124.4159583333333 958.2906666666667 129.2958333333334L958.4575 129.2958333333334zM458.7916666666667 554.7208333333333C458.7916666666667 570.7368333333333 471.9715 583.9166666666666 487.9875 583.9166666666666L513.0125 583.9166666666666C529.0285 583.9166666666666 542.2083333333334 570.7368333333333 542.2083333333334 554.7208333333333L542.2083333333334 404.5708333333334C542.2083333333334 388.5548333333334 529.0285 375.375 513.0125 375.375L487.9875 375.375C471.9715 375.375 458.7916666666667 388.5548333333334 458.7916666666667 404.5708333333334L458.7916666666667 554.7208333333333zM546.3791666666667 250.25C546.3791666666667 227.352125 527.5687083333333 208.5416666666666 504.6708333333333 208.5416666666666L496.3291666666667 208.5416666666666C473.4312916666667 208.5416666666666 454.6208333333334 227.352125 454.6208333333334 250.25L454.6208333333334 258.5916666666666C454.6208333333334 281.4895416666666 473.4312916666667 300.3 496.3291666666667 300.3L504.6708333333333 300.3C527.5687083333333 300.3 546.3791666666667 281.4895416666666 546.3791666666667 258.5916666666666L546.3791666666667 250.25z" />
    <glyph glyph-name="c-icon--file"
      unicode="&#xE91B;"
      horiz-adv-x="1001" d="M833.8747083333333 717.3833333333333C833.9998333333333 726.2672083333333 830.5797500000001 734.859125 824.3652083333334 741.2405L615.8235416666668 949.7821666666666C609.35875 956.1218333333334 600.5165833333333 959.583625 591.465875 959.2916666666666L591.1739166666666 959.2916666666666L250.25 959.2916666666666C204.5376666666667 959.1665416666668 166.9584583333334 921.5873333333334 166.8333333333334 875.875L166.8333333333334 125.125C166.9584583333334 79.4126666666666 204.5376666666667 41.8334583333333 250.25 41.7083333333333L750.75 41.7083333333333C796.4623333333334 41.8334583333333 834.0415416666667 79.4126666666666 834.1666666666667 125.125L834.1666666666667 716.9245416666666L833.8747083333333 717.3833333333333zM720.2195 750.75L625.625 750.75L625.625 845.4279166666666L720.2195 750.75zM750.75 108.4416666666667L250.25 108.4416666666667C241.1575833333334 108.5667916666666 233.6917916666667 116.0325833333333 233.5666666666667 125.125L233.5666666666667 875.875C233.6917916666667 884.9674166666666 241.1575833333334 892.4332083333334 250.25 892.5583333333333L558.8916666666668 892.5583333333333L558.8916666666668 717.3833333333333C558.8916666666668 699.0733749999999 573.948375 684.0166666666667 592.2583333333333 684.0166666666667L767.4333333333333 684.0166666666667L767.4333333333333 125.125C767.3082083333334 116.0325833333333 759.8424166666667 108.5667916666666 750.75 108.4416666666667z" />
    <glyph glyph-name="c-icon--bolt"
      unicode="&#xE91C;"
      horiz-adv-x="1001" d="M777.8187083333335 596.4291666666667C777.6101666666666 598.7648333333333 777.151375 601.1005 776.4423333333334 603.35275C774.6905833333334 607.2316249999999 772.52175 610.86025 769.9358333333334 614.238625C768.4343333333334 615.7818333333332 766.8077083333335 617.1582083333333 765.0559583333334 618.4094583333333C763.9298333333334 619.5355833333333 762.6785833333334 620.5782916666667 761.385625 621.495875C760.76 621.8712499999999 760.0926666666667 621.8712499999999 759.4670416666667 622.2049166666666C758.2992083333335 622.6637083333333 757.0896666666667 623.0807916666666 755.8801250000001 623.4561666666666C753.1690833333333 624.37375 750.374625 624.9159583333333 747.5384583333333 625.1244999999999C746.871125 625.2079166666667 746.1620833333334 625.625 745.3279166666667 625.625L559.6841250000001 625.625L559.6841250000001 780.3629166666667C559.6841250000001 781.5724583333333 559.6841250000001 782.8654166666666 559.6841250000001 784.1166666666667C559.6841250000001 784.5754583333334 559.4755833333334 784.9925416666666 559.4755833333334 785.4513333333333L559.4755833333334 906.4055C559.4755833333334 907.531625 558.9333750000001 908.532625 558.8499583333333 909.65875C558.683125 912.3280833333334 558.2243333333333 914.9974166666668 557.431875 917.5833333333334C556.80625 919.293375 556.0137916666666 920.92 555.0962083333334 922.4632083333335C554.0117916666667 924.548625 552.677125 926.550625 551.1756250000001 928.3440833333332C549.7575416666666 929.8872916666666 548.2143333333333 931.2636666666668 546.546 932.5149166666666C545.5450000000001 933.557625 544.4605833333334 934.5169166666668 543.3344583333334 935.3927916666667C542.6254166666666 935.809875 541.8746666666667 935.809875 541.165625 936.18525C539.163625 937.061125 537.1199166666667 937.7701666666666 534.9927916666667 938.312375C532.8656666666667 938.9797083333332 530.6551250000001 939.3967916666666 528.402875 939.6053333333334C527.6938333333334 939.813875 526.9847916666666 939.939 526.27575 940.064125C524.8576666666667 939.8972916666665 523.4812916666667 939.6053333333334 522.1049166666668 939.2299583333335C519.894375 939.0214166666668 517.7255416666667 938.6043333333334 515.640125 937.937C513.5547083333333 937.18625 511.511 936.2269583333334 509.634125 935.059125C507.9240833333334 934.0998333333334 506.2974583333333 933.0154166666666 504.7959583333334 931.805875C502.9190833333333 930.1375416666668 501.25075 928.2606666666666 499.7909583333334 926.2169583333334C498.9567916666667 925.3827916666665 498.2060416666667 924.5069166666668 497.4552916666667 923.5893333333335L226.351125 463.3795833333332C225.97575 462.7122499999999 225.97575 461.9615 225.6420833333334 461.2941666666667C224.7245 459.2921666666666 224.0154583333334 457.2067499999999 223.47325 455.0379166666667C222.8059166666667 452.9525 222.3888333333334 450.7836666666666 222.1802916666667 448.573125C222.096875 446.5294166666667 222.222 444.4857083333333 222.5556666666667 442.442C222.7642083333334 440.18975 223.223 437.9792083333333 223.8903333333334 435.8103749999999C224.599375 433.8500833333333 225.5169583333334 431.9732083333332 226.5596666666667 430.17975C227.5606666666667 428.302875 228.7702083333334 426.5094166666667 230.1465833333334 424.8827916666667C231.6480833333334 423.2144583333333 233.3164166666667 421.7129583333333 235.109875 420.42C236.0691666666667 419.419 237.0701666666667 418.5014166666666 238.1545833333334 417.66725C239.0304583333334 417.16675 239.98975 416.9582083333334 240.865625 416.541125C241.7415000000001 416.1240416666667 242.6590833333334 415.7486666666666 243.618375 415.3732916666667C247.2887083333334 413.9552083333333 251.1675833333334 413.16275 255.0881666666667 413.0793333333334L434.4340000000001 413.0793333333334L434.4340000000001 86.4196666666666C434.6425416666667 84.1674166666667 435.1013333333334 81.956875 435.810375 79.7880416666666C435.9772083333334 78.5367916666666 436.2274583333334 77.3272499999999 436.5194166666667 76.1177083333332C438.7299583333334 69.0689999999999 443.3595833333334 63.063 449.6575416666667 59.184125C450.5334166666667 58.6002083333333 451.075625 57.6826249999999 452.0349166666667 57.1821249999999C452.326875 57.1821249999999 452.70225 57.1821249999999 452.9942083333334 56.9318749999999C457.5404166666667 54.4710833333334 462.6288333333334 53.1364166666666 467.8006666666666 53.0529999999999L468.7599583333334 53.0529999999999C473.6398333333333 53.2615416666666 478.3945833333334 54.5127916666665 482.73225 56.8067499999999C484.3171666666667 57.6826249999999 485.860375 58.6836249999999 487.2784583333333 59.8514583333332C490.0729166666667 61.9785833333333 492.5337083333333 64.4810833333332 494.5774166666667 67.3589583333333C495.369875 68.4433749999998 496.6628333333334 68.9438749999999 497.3301666666667 70.1534166666666L730.73 496.3291666666667L747.4133333333334 526.9430833333333L747.4133333333334 527.1933333333334L774.3569166666666 576.4091666666666C774.5237500000001 576.9096666666667 774.6905833333334 577.4101666666666 774.8157083333334 577.9106666666667C776.400625 582.0815 777.52675 586.3774583333333 778.152375 590.7985416666666C778.152375 591.3824583333333 778.4860416666667 591.84125 778.4860416666667 592.4251666666667C778.3609166666666 593.7598333333333 778.152375 595.0944999999999 777.8187083333335 596.4291666666667z" />
    <glyph glyph-name="c-icon--bolt-o"
      unicode="&#xE91D;"
      horiz-adv-x="1001" d="M778.0272500000001 596.4291666666667C777.8187083333335 598.7648333333333 777.3599166666668 601.1005 776.650875 603.35275C774.899125 607.2316249999999 772.7302916666667 610.86025 770.1443750000001 614.238625C768.642875 615.7818333333332 767.01625 617.1582083333333 765.2645 618.4094583333333C764.1383750000001 619.5355833333333 762.8871250000001 620.5365833333333 761.5941666666668 621.4541666666667C760.9685416666667 621.8295416666667 760.3012083333333 621.8295416666667 759.6755833333333 622.1632083333334C758.50775 622.6220000000001 757.2982083333334 623.0390833333333 756.0886666666668 623.4144583333333C753.377625 624.3320416666666 750.5831666666667 624.87425 747.7470000000001 625.0827916666667C747.0796666666666 625.2079166666667 746.5791666666667 625.625 745.5364583333334 625.625L559.8926666666666 625.625L559.8926666666666 780.3629166666667L559.8926666666666 785.4513333333333L559.8926666666666 906.4055C559.7258333333334 907.4899166666665 559.5172916666667 908.5743333333334 559.2253333333333 909.65875C559.0585 912.3697916666666 558.5162916666667 915.039125 557.6404166666666 917.5833333333334C557.0147916666667 919.293375 556.2223333333334 920.92 555.30475 922.4632083333335C554.1369166666667 924.5903333333334 552.7605416666667 926.550625 551.1339166666667 928.3440833333332C549.7575416666666 929.8872916666666 548.2143333333333 931.2636666666668 546.546 932.5149166666666C545.5450000000001 933.557625 544.4605833333334 934.5169166666668 543.3344583333334 935.3927916666667C542.6254166666666 935.809875 541.8746666666667 935.809875 541.1239166666667 936.18525C539.163625 937.061125 537.0782083333334 937.811875 534.9927916666667 938.312375C532.8656666666667 938.9797083333332 530.6551250000001 939.3967916666666 528.402875 939.6053333333334C527.6938333333334 939.813875 526.9847916666666 939.939 526.27575 940.064125C524.8576666666667 939.8972916666665 523.4812916666667 939.6053333333334 522.1049166666668 939.2299583333335C519.894375 939.0214166666668 517.7255416666667 938.6043333333334 515.640125 937.937C513.5547083333333 937.18625 511.511 936.2269583333334 509.634125 935.059125C507.9240833333334 934.0998333333334 506.2974583333333 933.0154166666666 504.7959583333334 931.805875C502.9190833333333 930.1375416666668 501.25075 928.2606666666666 499.7909583333334 926.2169583333334C498.9567916666667 925.3827916666665 498.2060416666667 924.5069166666668 497.4552916666667 923.5893333333335L226.351125 463.3795833333332C225.97575 462.7122499999999 225.97575 461.9615 225.6420833333334 461.2941666666667C224.7245 459.2921666666666 224.0154583333334 457.2067499999999 223.47325 455.0379166666667C222.8059166666667 452.9525 222.3888333333334 450.7836666666666 222.1802916666667 448.573125C222.096875 446.5294166666667 222.222 444.4857083333333 222.5556666666667 442.442C222.7642083333334 440.18975 223.223 437.9792083333333 223.8903333333334 435.8103749999999C224.599375 433.8500833333333 225.5169583333334 431.9732083333332 226.5596666666667 430.17975C227.5606666666667 428.302875 228.7702083333334 426.5094166666667 230.1465833333334 424.8827916666667C231.6480833333334 423.2144583333333 233.3164166666667 421.7129583333333 235.109875 420.42C236.0691666666667 419.419 237.0701666666667 418.5014166666666 238.1545833333334 417.66725C239.0304583333334 417.16675 239.9480416666667 416.9582083333334 240.865625 416.541125C241.7832083333334 416.1240416666667 242.6590833333334 415.7486666666666 243.618375 415.3732916666667C247.2887083333334 413.9552083333333 251.1675833333334 413.16275 255.0881666666667 413.0793333333334L434.4340000000001 413.0793333333334L434.4340000000001 86.4196666666666C434.6425416666667 84.1674166666667 435.1013333333334 81.956875 435.810375 79.7880416666666C436.2691666666667 75.5337916666666 437.9375 71.5297916666666 440.6068333333334 68.193125C441.2741666666667 67.067 442.0249166666668 65.9825833333333 442.8173750000001 64.9398749999999C444.819375 62.7293333333333 447.1133333333334 60.7690416666667 449.6575416666667 59.184125C450.5334166666667 58.6002083333333 451.075625 57.6826249999999 452.0349166666667 57.1821249999999C452.326875 57.1821249999999 452.70225 57.1821249999999 452.9942083333334 56.9318749999999C457.5404166666667 54.4710833333334 462.6288333333334 53.1364166666666 467.8006666666666 53.0529999999999L468.7599583333334 53.0529999999999C475.5167083333333 53.2198333333333 482.0232083333334 55.5972083333332 487.2784583333333 59.8514583333332C490.0729166666667 61.9785833333333 492.5337083333333 64.4810833333332 494.5774166666667 67.3589583333333C495.369875 68.4433749999998 496.6628333333334 68.9438749999999 497.3301666666667 70.1534166666666L730.9385416666667 496.3291666666667L747.621875 526.9430833333333L747.621875 527.1933333333334L774.5654583333335 576.4091666666666C774.7322916666667 576.9096666666667 774.899125 577.4101666666666 775.02425 577.9106666666667C776.6091666666667 582.0815 777.7352916666666 586.3774583333333 778.3609166666666 590.7985416666666C778.3609166666666 591.3824583333333 778.6945833333334 591.84125 778.6945833333334 592.4251666666667C778.5694583333335 593.7598333333333 778.3609166666666 595.0944999999999 778.0272500000001 596.4291666666667zM679.303625 540.7068333333334L501.5427083333334 216.8833333333332L501.5427083333334 446.2791666666666C501.5427083333334 464.589125 486.486 479.6458333333333 468.1760416666667 479.6458333333333L313.8552083333334 479.6458333333333L493.2010416666666 784.1166666666667L493.2010416666666 592.2583333333332C493.2010416666666 573.9483749999999 508.25775 558.8916666666667 526.5677083333334 558.8916666666667L689.2302083333333 558.8916666666667L679.303625 540.7068333333334z" />
    <glyph glyph-name="c-icon--ellipsis-v"
      unicode="&#xE91E;"
      horiz-adv-x="1001" d="M168.5016666666667 500.5A83.41666666666667 83.41666666666667 0 0 1 335.335 500.5A83.41666666666667 83.41666666666667 0 0 1 168.5016666666667 500.5M418.7516666666667 500.5A83.41666666666667 83.41666666666667 0 0 1 585.585 500.5A83.41666666666667 83.41666666666667 0 0 1 418.7516666666667 500.5M669.0016666666667 500.5A83.41666666666667 83.41666666666667 0 0 1 835.835 500.5A83.41666666666667 83.41666666666667 0 0 1 669.0016666666667 500.5" />
    <glyph glyph-name="c-icon--ellipsis-h"
      unicode="&#xE91F;"
      horiz-adv-x="1001" d="M417.0833333333334 750.75A83.41666666666667 83.41666666666667 0 0 1 583.9166666666667 750.75A83.41666666666667 83.41666666666667 0 0 1 417.0833333333334 750.75M417.0833333333334 500.5A83.41666666666667 83.41666666666667 0 0 1 583.9166666666667 500.5A83.41666666666667 83.41666666666667 0 0 1 417.0833333333334 500.5M417.0833333333334 250.25A83.41666666666667 83.41666666666667 0 0 1 583.9166666666667 250.25A83.41666666666667 83.41666666666667 0 0 1 417.0833333333334 250.25" />
    <glyph glyph-name="c-icon--info-circle"
      unicode="&#xE920;"
      horiz-adv-x="1001" d="M956.9142916666668 547.421875A458.7916666666667 458.7916666666667 0 0 1 719.1767916666668 903.903A442.90079166666663 442.90079166666663 0 0 1 679.0950833333335 923.2139583333334A459.8343750000001 459.8343750000001 0 0 1 321.9049166666669 923.2139583333334A442.90079166666663 442.90079166666663 0 0 1 281.8232083333335 903.903A458.7916666666667 458.7916666666667 0 1 1 956.914291666667 547.421875zM542.2083333333334 279.4458333333332A29.195833333333326 29.195833333333326 0 0 0 513.0125 250.25H487.9875000000001A29.195833333333326 29.195833333333326 0 0 0 458.7916666666667 279.4458333333332V554.7208333333333A29.195833333333326 29.195833333333326 0 0 0 487.9875000000001 583.9166666666666H513.0125A29.195833333333326 29.195833333333326 0 0 0 542.2083333333334 554.7208333333333zM546.3791666666667 700.6999999999999A41.708333333333336 41.708333333333336 0 0 0 504.6708333333333 658.9916666666666H496.3291666666667A41.708333333333336 41.708333333333336 0 0 0 454.6208333333334 700.6999999999999V709.0416666666666A41.708333333333336 41.708333333333336 0 0 0 496.3291666666667 750.75H504.6708333333333A41.708333333333336 41.708333333333336 0 0 0 546.3791666666667 709.0416666666666z" />
    <glyph glyph-name="c-icon--info-circle-o"
      unicode="&#xE921;"
      horiz-adv-x="1001" d="M500.5 959.2916666666666A458.7916666666667 458.7916666666667 0 1 1 959.2916666666669 500.5A458.7916666666667 458.7916666666667 0 0 1 500.5 959.2916666666666zM500.5 108.4416666666667A392.05833333333345 392.05833333333345 0 1 0 892.5583333333333 500.5A392.51712499999996 392.51712499999996 0 0 0 500.5 108.4416666666667zM487.9875 583.9166666666666H513.0124999999999A29.195833333333326 29.195833333333326 0 0 0 542.2083333333333 554.7208333333333V279.4458333333335A29.195833333333326 29.195833333333326 0 0 0 513.0124999999999 250.2500000000001H487.9875A29.195833333333326 29.195833333333326 0 0 0 458.7916666666667 279.4458333333335V554.7208333333334A29.195833333333326 29.195833333333326 0 0 0 487.9875 583.9166666666667zM496.3291666666667 750.75H504.6708333333334A41.708333333333336 41.708333333333336 0 0 0 546.3791666666667 709.0416666666666V700.7A41.708333333333336 41.708333333333336 0 0 0 504.6708333333334 658.9916666666667H496.3291666666668A41.708333333333336 41.708333333333336 0 0 0 454.6208333333335 700.7V709.0416666666667A41.708333333333336 41.708333333333336 0 0 0 496.3291666666668 750.75z" />
    <glyph glyph-name="c-icon--list"
      unicode="&#xE922;"
      horiz-adv-x="1001" d="M834.1666666666667 316.9770770833333H375.375A41.708333333333336 41.708333333333336 0 0 1 375.375 233.5604104166667H834.1666666666667A41.708333333333336 41.708333333333336 0 0 1 834.1666666666667 316.9770770833333zM834.1666666666667 542.2183433333332H375.375A41.708333333333336 41.708333333333336 0 0 1 375.375 458.8016766666666H834.1666666666667A41.708333333333336 41.708333333333336 0 0 1 834.1666666666667 542.2183433333332zM375.375 684.3282279166667H834.1666666666667A41.708333333333336 41.708333333333336 0 0 1 834.1666666666667 767.7448945833333H375.375A41.708333333333336 41.708333333333336 0 0 1 375.375 684.3282279166667zM166.8333333333334 771.92990875A45.87916666666667 45.87916666666667 0 1 1 212.7166708333334 726.0586666666667A45.882503333333325 45.882503333333325 0 0 1 166.8333333333334 771.92990875zM166.8333333333334 546.3833374999999A45.87916666666667 45.87916666666667 0 1 1 212.7166708333334 500.5A45.88792541666667 45.88792541666667 0 0 1 166.8333333333334 546.3833374999999zM120.9524983333334 275.2741658333332A45.880835 45.880835 0 0 1 212.7141683333333 275.2741658333332A45.880835 45.880835 0 0 1 120.9524983333334 275.2741658333332" />
    <glyph glyph-name="c-icon--location"
      unicode="&#xE923;"
      horiz-adv-x="1001" d="M792.4583333333334 625.625C792.4583333333334 785.785 660.6600000000001 917.5833333333334 500.5 917.5833333333334C340.3400000000001 917.5833333333334 208.5416666666667 785.785 208.5416666666667 625.625L208.5416666666667 622.4134583333333C208.5416666666667 620.2029166666666 209.0004583333334 617.86725 209.0421666666667 615.615C209.334125 606.8979583333332 209.9180416666667 598.2643333333333 210.96075 589.7558333333334C235.5686666666667 363.4047083333333 500.5 83.4166666666666 500.5 83.4166666666666C500.5 83.4166666666666 765.4313333333334 363.4047083333333 790.03925 589.7558333333334C791.0819583333333 598.0975 791.6658750000001 606.8979583333332 791.9578333333334 615.615C791.9578333333334 617.86725 792.4583333333334 620.2029166666666 792.4583333333334 622.4134583333333L792.4583333333334 623.2059166666667C792.4583333333334 623.998375 792.4583333333334 624.7908333333334 792.4583333333334 625.625zM500.5 521.3541666666666C443.317875 521.3541666666666 396.2291666666667 568.442875 396.2291666666667 625.625C396.2291666666667 682.807125 443.317875 729.8958333333333 500.5 729.8958333333333C557.682125 729.8958333333333 604.7708333333334 682.807125 604.7708333333334 625.625C604.7708333333334 568.442875 557.682125 521.3541666666666 500.5 521.3541666666666z" />
    <glyph glyph-name="c-icon--lock"
      unicode="&#xE924;"
      horiz-adv-x="1001" d="M709.0416666666667 583.9166666666666H700.7V667.3333333333333A200.2 200.2 0 0 1 300.3 667.3333333333333V583.9166666666666H291.9583333333334A83.66691666666667 83.66691666666667 0 0 1 208.5416666666667 500.5V166.8333333333333A83.66691666666667 83.66691666666667 0 0 1 291.9583333333334 83.4166666666666H709.0416666666667A83.66691666666667 83.66691666666667 0 0 1 792.4583333333334 166.8333333333333V500.5A83.66691666666667 83.66691666666667 0 0 1 709.0416666666667 583.9166666666666zM367.0333333333334 667.3333333333333A133.46666666666667 133.46666666666667 0 1 0 633.9666666666667 667.3333333333333V583.9166666666666H367.0333333333334zM563.0625 312.8125A41.708333333333336 41.708333333333336 0 0 0 521.3541666666667 271.1041666666667H479.6458333333334A41.708333333333336 41.708333333333336 0 0 0 437.9375 312.8125V354.5208333333333A41.708333333333336 41.708333333333336 0 0 0 479.6458333333334 396.2291666666667H521.3541666666667A41.708333333333336 41.708333333333336 0 0 0 563.0625 354.5208333333333z" />
    <glyph glyph-name="c-icon--lock-o"
      unicode="&#xE925;"
      horiz-adv-x="1001" d="M709.0416666666667 583.9166666666666H700.7V667.3333333333333A200.2 200.2 0 0 1 300.3 667.3333333333333V583.9166666666666H291.9583333333334A83.66691666666667 83.66691666666667 0 0 1 208.5416666666667 500.5V166.8333333333333A83.66691666666667 83.66691666666667 0 0 1 291.9583333333334 83.4166666666666H709.0416666666667A83.66691666666667 83.66691666666667 0 0 1 792.4583333333334 166.8333333333333V500.5A83.66691666666667 83.66691666666667 0 0 1 709.0416666666667 583.9166666666666zM367.0333333333334 667.3333333333333A133.46666666666667 133.46666666666667 0 1 0 633.9666666666667 667.3333333333333V583.9166666666666H367.0333333333334zM725.725 166.8333333333333A16.891875000000002 16.891875000000002 0 0 0 709.0416666666667 150.15H291.9583333333334A16.891875000000002 16.891875000000002 0 0 0 275.275 166.8333333333333V500.5A16.891875000000002 16.891875000000002 0 0 0 291.9583333333334 517.1833333333334H709.0416666666667A16.891875000000002 16.891875000000002 0 0 0 725.725 500.5zM479.6458333333334 396.2291666666667H521.3541666666667A41.708333333333336 41.708333333333336 0 0 0 563.0625 354.5208333333333V312.8125A41.708333333333336 41.708333333333336 0 0 0 521.3541666666667 271.1041666666667H479.6458333333334A41.708333333333336 41.708333333333336 0 0 0 437.9375 312.8125V354.5208333333333A41.708333333333336 41.708333333333336 0 0 0 479.6458333333334 396.2291666666667z" />
    <glyph glyph-name="c-icon--mail"
      unicode="&#xE926;"
      horiz-adv-x="1001" d="M500.5 579.7458333333334L917.5833333333334 788.2875V792.4583333333333C917.5833333333334 817.4833333333333 900.9 834.1666666666666 875.875 834.1666666666666H125.125C100.1 834.1666666666666 83.4166666666667 817.4833333333333 83.4166666666667 792.4583333333333V788.2875L500.5 579.7458333333334zM517.1833333333334 513.0125C508.8416666666668 508.8416666666667 496.3291666666667 508.8416666666667 487.9875000000001 513.0125L83.4166666666667 713.2125V208.5416666666666C83.4166666666667 183.5166666666666 100.1 166.8333333333333 125.125 166.8333333333333H875.875C900.9 166.8333333333333 917.5833333333334 183.5166666666666 917.5833333333334 208.5416666666666V713.2125L517.1833333333334 513.0125z" />
    <glyph glyph-name="c-icon--mail-o"
      unicode="&#xE927;"
      horiz-adv-x="1001" d="M875.875 834.1666666666666L125.125 834.1666666666666C102.227125 834.1666666666666 83.4166666666667 815.3562083333334 83.4166666666667 792.4583333333333L83.4166666666667 208.5416666666666C83.4166666666667 185.6437916666666 102.227125 166.8333333333333 125.125 166.8333333333333L875.875 166.8333333333333C898.772875 166.8333333333333 917.5833333333334 185.6437916666666 917.5833333333334 208.5416666666666L917.5833333333334 792.4583333333333C917.5833333333334 815.3562083333334 898.772875 834.1666666666666 875.875 834.1666666666666zM850.85 767.4333333333334L850.85 734.48375L500.5 578.703125L150.15 734.48375L150.15 767.4333333333334L850.85 767.4333333333334zM150.15 233.5666666666667L150.15 661.41075L486.9447916666667 511.7195416666667C495.5784166666667 507.9240833333333 505.4215833333334 507.9240833333333 514.0552083333333 511.7195416666667L850.85 661.41075L850.85 233.5666666666667L150.15 233.5666666666667z" />
    <glyph glyph-name="c-icon--bars"
      unicode="&#xE928;"
      horiz-adv-x="1001" d="M834.1666666666667 208.5416666666666H166.8333333333334A41.708333333333336 41.708333333333336 0 0 0 166.8333333333334 291.9583333333333H834.1666666666667A41.708333333333336 41.708333333333336 0 0 0 834.1666666666667 208.5416666666666zM834.1666666666667 458.7916666666666H166.8333333333334A41.708333333333336 41.708333333333336 0 0 0 166.8333333333334 542.2083333333333H834.1666666666667A41.708333333333336 41.708333333333336 0 0 0 834.1666666666667 458.7916666666666zM834.1666666666667 709.0416666666666H166.8333333333334A41.708333333333336 41.708333333333336 0 0 0 166.8333333333334 792.4583333333333H834.1666666666667A41.708333333333336 41.708333333333336 0 0 0 834.1666666666667 709.0416666666666z" />
    <glyph glyph-name="c-icon--telegram"
      unicode="&#xE929;"
      horiz-adv-x="1001" d="M917.5833333333334 500.5A41.33295833333334 41.33295833333334 0 0 1 890.0975416666668 539.3304583333334L889.8472916666667 539.8726666666666L83.4166666666667 875.875V583.9166666666666L709.0416666666667 500.5L83.4166666666667 417.0833333333333V125.125L889.8472916666667 461.21075L889.8472916666667 461.6695416666666A41.37466666666666 41.37466666666666 0 0 1 917.5833333333334 500.5z" />
    <glyph glyph-name="c-icon--user"
      unicode="&#xE92A;"
      horiz-adv-x="1001" d="M624.87425 511.7195416666667C672.7554166666666 549.674125 700.7417083333333 607.5235833333334 700.7417083333333 668.6262916666667C700.7417083333333 778.4443333333334 610.3597500000001 868.8262916666666 500.5 868.8262916666666C390.6819583333334 868.8262916666666 300.3 778.4443333333334 300.3 668.6262916666667C300.3 607.5235833333334 328.2862916666668 549.674125 376.1674583333334 511.7195416666667C231.1058750000001 459.4172916666666 133.758625 321.0290416666666 133.4666666666667 166.8333333333333C133.4666666666667 148.523375 148.523375 133.4666666666666 166.8333333333334 133.4666666666666C185.1432916666667 133.4666666666666 815.8567083333334 133.4666666666666 834.1666666666667 133.4666666666666C852.476625 133.4666666666666 867.5333333333334 148.523375 867.5333333333334 166.8333333333333C867.2830833333334 321.0290416666666 769.9358333333334 459.3755833333332 624.87425 511.7195416666667z" />
    <glyph glyph-name="c-icon--user-o"
      unicode="&#xE92B;"
      horiz-adv-x="1001" d="M624.87425 511.7195416666667C672.7554166666666 549.674125 700.7417083333333 607.5235833333334 700.7417083333333 668.6262916666667C700.7417083333333 778.4443333333334 610.3597500000001 868.8262916666666 500.5 868.8262916666666C390.6819583333334 868.8262916666666 300.3 778.4443333333334 300.3 668.6262916666667C300.3 607.5235833333334 328.2862916666668 549.674125 376.1674583333334 511.7195416666667C231.1058750000001 459.4172916666666 133.758625 321.0290416666666 133.4666666666667 166.8333333333333C133.4666666666667 148.523375 148.523375 133.4666666666666 166.8333333333334 133.4666666666666C185.1432916666667 133.4666666666666 200.2 148.523375 200.2 166.8333333333333C200.2 331.58125 335.7520833333334 467.1333333333333 500.5 467.1333333333333C665.2479166666667 467.1333333333333 800.8000000000001 331.58125 800.8000000000001 166.8333333333333C800.8000000000001 148.523375 815.8567083333334 133.4666666666666 834.1666666666667 133.4666666666666C852.476625 133.4666666666666 867.5333333333334 148.523375 867.5333333333334 166.8333333333333C867.2830833333334 321.0290416666666 769.9358333333334 459.3755833333332 624.87425 511.7195416666667zM367.0333333333334 667.3333333333333C367.0333333333334 740.5314583333334 427.301875 800.8 500.5 800.8C573.6981250000001 800.8 633.9666666666667 740.5314583333334 633.9666666666667 667.3333333333333C633.9666666666667 594.1352083333333 573.6981250000001 533.8666666666667 500.5 533.8666666666667C427.301875 533.8666666666667 367.0333333333334 594.1352083333333 367.0333333333334 667.3333333333333z" />
    <glyph glyph-name="c-icon--user-business"
      unicode="&#xE92C;"
      horiz-adv-x="1001" d="M164.2057083333334 133.7169166666666C147.0635833333333 134.9681666666667 133.4666666666667 149.4409583333333 133.4666666666667 166.8333333333333C133.7169166666667 321.0290416666666 231.0641666666667 459.3755833333332 376.1257500000001 511.7195416666667C328.2445833333334 549.674125 300.3 607.5235833333334 300.3 668.6262916666667C300.3 778.4443333333334 390.64025 868.8262916666666 500.5 868.8262916666666C610.3180416666667 868.8262916666666 700.7 778.4443333333334 700.7 668.6262916666667C700.7 607.5235833333334 672.7137083333334 549.674125 624.8325416666667 511.7195416666667C770.1860833333334 459.0002083333334 867.2413750000001 320.8204999999999 867.5333333333334 166.8333333333333C867.5333333333334 148.7319166666666 852.7685833333335 133.8003333333333 834.7922916666668 133.5500833333333L834.7922916666668 133.508375L834.7505833333333 133.508375L834.1666666666667 133.4666666666666L833.58275 133.508375L583.6664166666667 133.4666666666666L521.3541666666667 372.9559166666667L547.9223750000001 462.9625L452.9107916666667 462.9625L452.2851666666667 462.837375L479.6875416666667 372.9142083333334L417.2918750000001 133.38325L164.164 133.3415416666666L164.2057083333334 133.7169166666666z" />
    <glyph glyph-name="c-icon--user-business-o"
      unicode="&#xE92D;"
      horiz-adv-x="1001" d="M624.8325416666667 511.7195416666667C672.7137083333334 549.674125 700.7 607.5235833333334 700.7 668.6262916666667C700.7 778.4443333333334 610.3180416666667 868.8262916666666 500.5 868.8262916666666C390.64025 868.8262916666666 300.3 778.4443333333334 300.3 668.6262916666667C300.3 607.5235833333334 328.2445833333334 549.674125 376.1257500000001 511.7195416666667C231.0641666666667 459.3755833333332 133.7169166666667 321.0290416666666 133.4666666666667 166.8333333333333C133.4666666666667 148.523375 148.523375 133.4666666666666 166.8333333333334 133.4666666666666C185.1432916666667 133.4666666666666 200.2 148.523375 200.2 166.8333333333333C200.4919583333334 313.5215416666666 308.0994583333334 439.6058333333333 452.9107916666667 462.9625L452.1183333333333 461.7529583333333L479.6875416666667 372.9142083333334L417.0833333333334 132.5490833333333L583.9166666666667 132.5490833333333L521.3541666666667 372.9559166666667L549.0067916666667 461.836375L548.0475 462.9625C692.8588333333333 439.6475416666666 800.5080416666668 313.5215416666666 800.8000000000001 166.8333333333333C800.8000000000001 148.523375 815.8567083333334 133.4666666666666 834.1666666666667 133.4666666666666C852.476625 133.4666666666666 867.5333333333334 148.523375 867.5333333333334 166.8333333333333C867.2413750000001 321.0290416666666 769.894125 459.4172916666666 624.8325416666667 511.7195416666667zM367.0333333333334 667.3333333333333C367.0333333333334 740.5314583333334 427.301875 800.8 500.5 800.8C573.6981250000001 800.8 633.9666666666667 740.5314583333334 633.9666666666667 667.3333333333333C633.9666666666667 594.1352083333333 573.6981250000001 533.8666666666667 500.5 533.8666666666667C427.301875 533.8666666666667 367.0333333333334 594.1352083333333 367.0333333333334 667.3333333333333z" />
    <glyph glyph-name="c-icon--users"
      unicode="&#xE92E;"
      horiz-adv-x="1001" d="M537.6464635208333 266.8679555208332C532.7587682083333 363.6443227083334 474.1064244583333 445.7576039583334 395.9032994583333 479.9714711458333C428.1620885208333 504.4099477083333 445.7577916458333 541.5564320833333 445.7577916458333 588.4783070833333C445.7577916458333 662.7712758333333 383.1952916458333 725.3337758333333 307.9247838333334 725.3337758333333C232.6542760208334 725.3337758333333 170.0917760208334 662.7712758333333 170.0917760208334 588.4783070833333C170.0917760208334 546.4441273958333 191.5976353958334 504.4099477083333 219.9462682083334 479.9714711458333C141.7431432083334 445.7576039583334 83.0907994583333 363.6443227083334 78.2031041458333 266.8679555208332L537.6464635208333 266.8679555208332zM913.0214635208334 266.8679555208332C908.1337682083334 363.6443227083334 849.4814244583334 445.7576039583334 771.2782994583334 479.9714711458333C803.5370885208334 504.4099477083333 821.1327916458334 541.5564320833333 821.1327916458334 588.4783070833333C821.1327916458334 662.7712758333333 758.5702916458334 725.3337758333333 683.2997838333334 725.3337758333333C608.0292760208333 725.3337758333333 545.4667760208333 662.7712758333333 545.4667760208333 588.4783070833333C545.4667760208333 546.4441273958333 566.9726353958333 504.4099477083333 595.3212682083333 479.9714711458333C570.8827916458333 471.1736195833333 549.3769322708333 454.5554555208333 532.7587682083333 437.9372914583334C574.7929478958333 391.9929555208334 604.1191197708333 333.3406117708332 616.8271275833333 266.8679555208332L913.0214635208334 266.8679555208332z" />
    <glyph glyph-name="c-icon--users-o"
      unicode="&#xE92F;"
      horiz-adv-x="1001" d="M308.9675130208334 439.8924738541666C405.7438802083334 439.8924738541666 488.8347005208334 360.7118097916666 492.7448567708334 256.1151301041666L538.6891927083334 256.1151301041666C533.8014973958334 352.8914972916666 475.1491536458334 435.0047785416666 396.9460286458334 469.2186457291666C429.2048177083334 493.6571222916666 446.8005208333334 530.8036066666666 446.8005208333334 577.7254816666666C446.8005208333334 652.0184504166666 384.2380208333334 714.5809504166666 308.9675130208334 714.5809504166666C233.6970052083334 714.5809504166666 171.1345052083334 652.0184504166666 171.1345052083334 577.7254816666666C171.1345052083334 535.6913019791666 192.6403645833334 493.6571222916666 220.9889973958334 469.2186457291666C142.7858723958333 435.0047785416666 84.1335286458333 352.8914972916666 79.2458333333333 256.1151301041666L125.1901692708333 256.1151301041666C129.1003255208333 360.7118097916666 212.1911458333334 439.8924738541666 308.9675130208334 439.8924738541666zM217.0788411458334 577.7254816666666C217.0788411458334 627.5799738541666 259.1130208333334 668.6366144791666 308.9675130208334 668.6366144791666C358.8220052083334 668.6366144791666 400.8561848958334 627.5799738541666 400.8561848958334 577.7254816666666C400.8561848958334 526.8934504166666 358.8220052083334 485.8368097916666 308.9675130208334 485.8368097916666C259.1130208333334 485.8368097916666 217.0788411458334 526.8934504166666 217.0788411458334 577.7254816666666zM772.3210286458333 464.3309504166666C804.5798177083333 490.7245051041666 822.1755208333333 526.8934504166666 822.1755208333333 572.8377863541666C822.1755208333333 648.1082941666666 759.6130208333333 710.6707941666666 684.3425130208333 710.6707941666666C609.0720052083334 710.6707941666666 546.5095052083334 648.1082941666666 546.5095052083334 572.8377863541666C546.5095052083334 530.8036066666666 568.0153645833334 490.7245051041666 596.3639973958334 464.3309504166666C571.9255208333334 452.6004816666666 546.5095052083334 435.0047785416666 525.9811848958334 418.3866144791666C529.8913411458334 412.5213801041666 533.8014973958334 406.6561457291666 538.6891927083334 400.7909113541666C542.5993489583334 393.9481379166666 546.5095052083334 388.0829035416666 550.4196614583334 381.2401301041666C584.6335286458334 415.4539972916666 629.6003255208334 439.8924738541666 680.4323567708333 439.8924738541666C775.2536458333333 439.8924738541666 859.3220052083333 360.7118097916666 863.2321614583333 256.1151301041666L914.0641927083332 256.1151301041666C909.1764973958332 347.0262629166666 850.5241536458333 432.0721613541666 772.3210286458333 464.3309504166666zM684.3425130208333 480.9491144791666C634.4880208333334 480.9491144791666 592.4538411458334 522.9832941666666 592.4538411458334 572.8377863541666C592.4538411458334 623.6698176041666 634.4880208333334 664.7264582291666 684.3425130208333 664.7264582291666C734.1970052083333 664.7264582291666 776.2311848958333 623.6698176041666 776.2311848958333 572.8377863541666C776.2311848958333 522.9832941666666 734.1970052083333 480.9491144791666 684.3425130208333 480.9491144791666z" />
    <glyph glyph-name="c-icon--print-o"
      unicode="&#xE930;"
      horiz-adv-x="1001" d="M707.3733333333334 458.7916666666666A41.708333333333336 41.708333333333336 0 0 1 790.7900000000001 458.7916666666666A41.708333333333336 41.708333333333336 0 0 1 707.3733333333334 458.7916666666666M834.1666666666667 625.625H750.75V834.1666666666666A41.708333333333336 41.708333333333336 0 0 1 709.0416666666667 875.875H291.9583333333334A41.708333333333336 41.708333333333336 0 0 1 250.25 834.1666666666666V625.625H166.8333333333334A83.66691666666667 83.66691666666667 0 0 1 83.4166666666667 542.2083333333333V333.958625H83.4166666666667V250.25A41.708333333333336 41.708333333333336 0 0 1 125.125 208.5416666666666H250.25V125.125A41.708333333333336 41.708333333333336 0 0 1 291.9583333333334 83.4166666666666H709.0416666666667A41.708333333333336 41.708333333333336 0 0 1 750.75 125.125V208.5416666666666H875.875A41.708333333333336 41.708333333333336 0 0 1 917.5833333333334 250.25V333.958625H917.5833333333334V542.2083333333333A83.66691666666667 83.66691666666667 0 0 1 834.1666666666667 625.625zM316.9833333333334 709.6255833333333V809.1416666666667H684.0166666666667V625.625H316.9833333333334zM250.25 333.6666666666667V275.275H150.15V333.958625H150.15V542.2083333333333A16.891875000000002 16.891875000000002 0 0 0 166.8333333333334 558.8916666666667H834.1666666666667A16.891875000000002 16.891875000000002 0 0 0 850.85 542.2083333333333V333.958625H850.85V275.275H750.75V333.6666666666667A41.708333333333336 41.708333333333336 0 0 1 709.0416666666667 375.375H291.9583333333334A41.708333333333336 41.708333333333336 0 0 1 250.25 333.6666666666667zM684.0166666666667 150.15H316.9833333333334V308.6416666666666H684.0166666666667z" />
    <glyph glyph-name="c-icon--search"
      unicode="&#xE931;"
      horiz-adv-x="1001" d="M863.6544583333334 196.321125L726.0169583333334 333.958625A336.62795833333337 336.62795833333337 0 1 1 666.91625 275.275L681.5558750000001 260.6770833333333H681.5558750000001L767.4333333333333 174.6744999999999L804.7205833333333 137.3455416666666A41.708333333333336 41.708333333333336 0 0 1 863.6961666666666 196.321125zM191.8583333333333 539.9977916666667A269.14387500000004 269.14387500000004 0 1 0 461.0022083333334 270.8956249999999A269.4775416666667 269.4775416666667 0 0 0 191.8583333333333 539.9977916666667z" />
    <glyph glyph-name="c-icon--setting"
      unicode="&#xE932;"
      horiz-adv-x="1001" d="M858.5243333333334 572.2383333333333L749.373625 594.0517916666666C747.2047916666667 599.7658333333334 744.9108333333334 605.4381666666666 742.366625 610.985375L804.2617916666668 702.7437083333334A21.60491666666667 21.60491666666667 0 0 1 801.6341666666668 730.0626666666667L730.1877916666667 801.675875A21.60491666666667 21.60491666666667 0 0 1 702.9522500000002 804.3869166666667L610.3597500000001 742.6585833333334C604.8125416666668 745.1610833333334 599.1402083333335 747.4550416666667 593.4261666666667 749.623875L572.1549166666667 858.4409166666667A21.563208333333332 21.563208333333332 0 0 1 550.9670833333334 875.875H449.9495000000001A21.60491666666667 21.60491666666667 0 0 1 428.7616666666667 858.5243333333333L406.9482083333334 749.373625C401.4427083333334 747.2882083333333 395.9789166666667 745.2027916666666 390.64025 742.6585833333334L298.04775 804.3869166666666A21.60491666666667 21.60491666666667 0 0 1 270.8122083333333 801.6758749999999L199.324125 730.1877916666666A21.60491666666667 21.60491666666667 0 0 1 196.6130833333333 702.9522499999999L258.3414166666667 610.3597499999998C255.9223333333333 605.0210833333333 253.7117916666667 599.5572916666665 251.626375 594.0517916666665L142.4756666666667 572.2383333333332A21.60491666666667 21.60491666666667 0 0 1 125.125 551.0504999999999V449.9495A21.60491666666667 21.60491666666667 0 0 1 142.4756666666667 428.7616666666667L251.626375 406.9482083333334C253.7117916666667 401.4427083333334 255.7972083333333 395.9789166666667 258.3414166666667 390.6402500000001L196.6130833333333 298.04775A21.60491666666667 21.60491666666667 0 0 1 199.324125 270.8122083333334L270.8122083333333 199.3241250000001A21.60491666666667 21.60491666666667 0 0 1 298.04775 196.6130833333334L390.64025 258.3414166666668C395.9789166666667 255.9223333333335 401.4427083333334 253.7117916666668 406.9482083333334 251.6263750000001L428.7616666666667 142.4756666666666A21.60491666666667 21.60491666666667 0 0 1 449.9495000000001 125.125H551.0505A21.60491666666667 21.60491666666667 0 0 1 572.2383333333333 142.4756666666666L594.0517916666666 251.6263750000001C599.7658333333334 253.7952083333334 605.4381666666666 256.0891666666667 610.735125 258.633375L702.702 196.7382083333332A21.60491666666667 21.60491666666667 0 0 1 730.0209583333334 199.3658333333332L801.4673333333334 270.8122083333333A21.563208333333332 21.563208333333332 0 0 1 804.1366666666668 298.0477499999999L742.4500416666668 390.6402499999999C744.9525416666668 396.1874583333332 747.2465000000001 401.8597916666665 749.3736250000002 407.5738333333333L858.2323750000002 428.8450833333333A21.563208333333332 21.563208333333332 0 0 1 875.875 450.0329166666666V551.0504999999999A21.60491666666667 21.60491666666667 0 0 1 858.5243333333334 572.2383333333333zM500.5 375.375A125.125 125.125 0 1 0 625.625 500.5A125.125 125.125 0 0 0 500.5 375.375z" />
    <glyph glyph-name="c-icon--share"
      unicode="&#xE933;"
      horiz-adv-x="1001" d="M750.75 375.375A124.37425000000002 124.37425000000002 0 0 1 658.2409166666667 333.6666666666667L372.9559166666667 476.3091666666667A120.495375 120.495375 0 0 1 372.9559166666667 524.3571666666667L658.2409166666667 667.3333333333333A124.6245 124.6245 0 1 1 625.625 750.75A126.45966666666666 126.45966666666666 0 0 1 628.0440833333333 726.726L342.7590833333334 583.9166666666666A125.125 125.125 0 1 1 342.7590833333334 416.7496666666667L628.0440833333333 274.1071666666668A126.45966666666666 126.45966666666666 0 0 1 625.625 250.25A125.125 125.125 0 1 1 750.75 375.375z" />
    <glyph glyph-name="c-icon--facebook"
      unicode="&#xE934;"
      horiz-adv-x="1001" d="M834.1666666666667 125.125H638.1375V417.0833333333333H734.0666666666667L750.75 529.6958333333332H638.1375V600.5999999999999C638.1375 633.9666666666667 646.4791666666667 654.8208333333334 692.3583333333335 654.8208333333334H750.75V759.0916666666667C742.4083333333334 759.0916666666667 704.8708333333333 763.2625 663.1625 763.2625A136.99227208333335 136.99227208333335 0 0 1 517.1833333333334 613.1125V529.6958333333332H421.2541666666667V417.0833333333333H517.1833333333333V125.125H166.8333333333334A41.79550375 41.79550375 0 0 0 125.125 166.8333333333333V834.1666666666666A41.79550375 41.79550375 0 0 0 166.8333333333334 875.875H834.1666666666667A41.79550375 41.79550375 0 0 0 875.875 834.1666666666666V166.8333333333333A39.40478208333334 39.40478208333334 0 0 0 834.1666666666667 125.125z" />
    <glyph glyph-name="c-icon--google-plus"
      unicode="&#xE935;"
      horiz-adv-x="1001" d="M348.2061916666667 548.7386070833334V449.8723395833333H494.24375A137.33803416666666 137.33803416666666 0 0 0 348.46186375 338.0214337499999A162.2395775 162.2395775 0 0 0 348.46186375 662.4472020833333A145.69263041666665 145.69263041666665 0 0 0 450.5092258333333 623.2200975L525.7823404166667 696.3765141666665A253.72430416666663 253.72430416666663 0 0 1 348.4631150000001 765.55353875A265.05353875000003 265.05353875000003 0 0 1 348.4631150000001 235.44646125A244.54096333333334 244.54096333333334 0 0 1 602.9256566666668 494.4018245833333A230.83602208333335 230.83602208333335 0 0 1 596.2940316666667 548.7386070833334zM841.4114041666667 537.8706666666667V614.0442641666666H766.1403750000001L766.0119133333334 598.913315V537.8706666666667H689.8383158333334V462.4765979166666H766.0098279166667V386.3009149999999H841.4114041666667V462.4749295833333H917.5833333333334V537.8706666666667z" />
    <glyph glyph-name="c-icon--twitter"
      unicode="&#xE936;"
      horiz-adv-x="1001" d="M892.5583333333333 804.9708333333333A343.9815545833334 343.9815545833334 0 0 0 784.1166666666666 763.2625A166.4629633333333 166.4629633333333 0 0 1 658.9916666666666 817.4833333333333A172.69085166666665 172.69085166666665 0 0 1 487.9874999999999 642.3083333333333A156.4617220833333 156.4617220833333 0 0 1 492.1583333333332 600.5999999999999A490.56132125 490.56132125 0 0 0 141.8083333333333 788.2875A164.14898499999998 164.14898499999998 0 0 1 116.7833333333333 700.7A175.94368458333332 175.94368458333332 0 0 1 191.8583333333333 554.7208333333333A172.51359125 172.51359125 0 0 0 112.6125 575.575V571.4041666666667A174.48931499999998 174.48931499999998 0 0 1 250.25 400.4A156.38664708333334 156.38664708333334 0 0 0 204.3708333333334 396.2291666666667A91.83549375 91.83549375 0 0 0 171.0041666666667 400.4A165.17751250000003 165.17751250000003 0 0 1 329.4958333333334 279.4458333333332A347.1839204166667 347.1839204166667 0 0 0 116.7833333333334 204.3708333333333A141.88883041666668 141.88883041666668 0 0 0 75.075 208.5416666666666A493.54847208333337 493.54847208333337 0 0 1 346.1791666666668 125.125C658.9916666666668 125.125 834.1666666666667 392.0583333333333 834.1666666666667 625.625V646.4791666666666A293.31427125 293.31427125 0 0 1 917.5833333333334 738.2375A351.73513375000005 351.73513375000005 0 0 0 817.4833333333335 709.0416666666666A170.5249379166667 170.5249379166667 0 0 1 892.5583333333335 804.9708333333333" />
    <glyph glyph-name="c-icon--instagram"
      unicode="&#xE937;"
      horiz-adv-x="1001" d="M873.6144083333334 655.2666954166666A275.62243041666665 275.62243041666665 0 0 1 856.1715662500001 746.38689125A191.94175000000004 191.94175000000004 0 0 1 746.3814691666668 856.16906375A275.49438583333335 275.49438583333335 0 0 1 655.2666954166667 873.6169108333333C615.2283637500001 875.4449870833333 602.4493475 875.875 500.5 875.875S385.77163625 875.4449870833333 345.7333045833334 873.6169108333333A275.49438583333335 275.49438583333335 0 0 1 254.6185308333334 856.16906375A191.94175000000004 191.94175000000004 0 0 1 144.82843375 746.38689125A275.62243041666665 275.62243041666665 0 0 1 127.3855916666667 655.2666954166666C125.5525104166667 615.22836375 125.125 602.4464279166666 125.125 500.5S125.5525104166667 385.7716362499999 127.3855916666667 345.7333045833333A275.58697833333326 275.58697833333326 0 0 1 144.82843375 254.6160283333334A191.93591083333337 191.93591083333337 0 0 1 254.6185308333333 144.83093625A275.55861666666664 275.55861666666664 0 0 1 345.7333045833334 127.3830891666667C385.77163625 125.5579325 398.5506525 125.125 500.5 125.125S615.2283637500001 125.5579325 655.2666954166667 127.3830891666667A275.55861666666664 275.55861666666664 0 0 1 746.3814691666668 144.83093625A191.93591083333337 191.93591083333337 0 0 1 856.1715662500001 254.6160283333334A275.58697833333326 275.58697833333326 0 0 1 873.6144083333334 345.7333045833334C875.449575 385.7733045833334 875.875 398.5560745833334 875.875 500.5000000000001S875.4474895833334 615.22836375 873.6144083333334 655.2666954166666zM806.0523304166667 348.8159675A207.94565458333335 207.94565458333335 0 0 0 793.1302545833335 279.1155033333332A124.32128041666667 124.32128041666667 0 0 0 721.8819941666668 207.8743333333333A207.64994250000004 207.64994250000004 0 0 0 652.1815300000002 194.9472525C612.6115829166669 193.1425329166667 600.7384716666668 192.7604845833333 500.5000000000001 192.7604845833333S388.3880000000001 193.1425329166667 348.8184700000001 194.9472525A207.64994250000004 207.64994250000004 0 0 0 279.1180058333334 207.8743333333333A124.32128041666667 124.32128041666667 0 0 0 207.8697454166667 279.11508625A207.94565458333335 207.94565458333335 0 0 0 194.9476695833334 348.8155504166666C193.1454525 388.39675875 192.7583991666667 400.27112125 192.7583991666667 500.4995829166667S193.1454525000001 612.60073875 194.9476695833334 652.1836154166667A207.9498254166667 207.9498254166667 0 0 0 207.8697454166667 721.8878333333333A124.34004916666669 124.34004916666669 0 0 0 279.1180058333334 793.1256666666667A207.732525 207.732525 0 0 0 348.81847 806.050245C388.3988441666667 807.85705 400.2715383333334 808.2416008333333 500.5 808.2416008333333S612.6011558333333 807.85705 652.1815300000001 806.0523304166667A207.732525 207.732525 0 0 0 721.8819941666668 793.1277520833333A124.34004916666669 124.34004916666669 0 0 0 793.1302545833335 721.8878333333333A207.9498254166667 207.9498254166667 0 0 0 806.0523304166667 652.1848666666666C807.8545475 612.6036583333332 808.2416008333333 600.7317983333332 808.2416008333333 500.5008341666666S807.8545475000001 388.3988441666667 806.0523304166667 348.8159675zM500.5 693.2609016666667A192.75965041666672 192.75965041666672 0 1 1 693.2583991666668 500.5A192.7571479166667 192.7571479166667 0 0 1 500.5 693.2609016666667zM500.5 375.375A125.125 125.125 0 1 0 625.625 500.5A125.12791958333332 125.12791958333332 0 0 0 500.5 375.375zM745.9235116666667 700.8776775A45.048336666666664 45.048336666666664 0 1 0 700.8751750000001 745.9226775A45.048753749999996 45.048753749999996 0 0 0 745.9235116666667 700.8776775z" />
    <glyph glyph-name="c-icon--facebook-circle"
      unicode="&#xE938;"
      horiz-adv-x="1001" d="M500.5 959.2916666666666A458.7916666666667 458.7916666666667 0 1 1 959.2916666666669 500.5A460.1405141666667 460.1405141666667 0 0 1 500.5 959.2916666666666zM611.86125 500.5H533.8666666666667V216.0491666666666H414.5808333333333V500.5H359.5258333333333V601.4341666666667H414.5808333333333V665.665A111.6115 111.6115 0 0 0 533.8666666666667 784.9508333333333H621.0370833333334V688.6045833333333H556.80625C547.6304166666666 688.6045833333333 533.8666666666667 684.0166666666667 533.8666666666667 661.0770833333333V601.4341666666667H625.625z" />
    <glyph glyph-name="c-icon--google-circle"
      unicode="&#xE939;"
      horiz-adv-x="1001" d="M500.5 959.2916666666666A458.7916666666667 458.7916666666667 0 1 1 959.2916666666669 500.5A458.7916666666667 458.7916666666667 0 0 1 500.5 959.2916666666666zM390.4759191666667 290.9936195833334A189.2098541666667 189.2098541666667 0 0 0 390.4759191666667 669.4133279166667A181.12135708333332 181.12135708333332 0 0 0 517.0569570833334 620.0306612500001L463.32286 567.8089083333334A104.00348291666667 104.00348291666667 0 0 1 390.4759191666667 595.8114662500002A115.81569999999999 115.81569999999999 0 0 1 390.4759191666667 364.2184379166669A98.03960833333333 98.03960833333333 0 0 1 494.5432158333334 444.0636200000002H390.2928195833334V514.6391249999999H567.3901566666667A164.77502708333333 164.77502708333333 0 0 0 572.1253037500002 475.850375A174.56689249999997 174.56689249999997 0 0 0 390.4759191666667 290.9936195833334zM796.7451158333333 453.0588562500001H742.3695445833334V398.6807825000001H688.5436891666667V453.05885625H634.1681179166667V506.8792895833333H688.5436891666667V550.45615625L688.6354474999999 561.2586145833334H742.3695445833332V506.8801237500001H796.7451158333332z" />
    <glyph glyph-name="c-icon--twitter-circle"
      unicode="&#xE93A;"
      horiz-adv-x="1001" d="M500.5000000000001 959.2916666666666C248.8068916666667 959.2916666666666 41.7083333333333 752.1931083333333 41.7083333333333 500.4999999999999C41.7083333333333 248.8068916666664 248.8068916666667 41.7083333333331 500.5000000000001 41.7083333333331C752.1931083333336 41.7083333333331 959.2916666666669 248.8068916666664 959.2916666666669 500.4999999999999C958.5576000000004 751.9178333333333 751.9178333333334 958.5576 500.5000000000001 959.2916666666666zM729.8958333333335 592.2583333333332L729.8958333333335 578.4945833333331C729.8958333333335 577.6687583333332 729.8958333333335 576.8888124999999 729.8958333333335 576.0629875C729.8958333333335 396.170775 581.8896416666668 248.1645833333332 401.9974291666668 248.1645833333332C401.1716041666668 248.1645833333332 400.3916583333335 248.1645833333332 399.5658333333335 248.1645833333332C336.4819791666668 248.6233749999999 274.6368625000001 266.0574583333332 220.6370833333334 298.6316666666667L248.1645833333334 298.6316666666667C300.0998000000001 297.7140833333331 350.6586416666667 315.6528374999998 390.3900000000001 349.0987499999999C339.7852791666668 349.8328166666664 295.14485 383.3246083333331 280.2800000000001 431.6812499999999L303.2195833333334 431.6812499999999C314.138825 430.9471833333332 325.0580666666667 432.507075 335.3350000000002 436.2691666666665C281.1058250000001 446.9590124999999 242.1085333333334 495.6826874999999 243.5766666666667 550.9670833333332C258.7167916666667 541.6077333333333 276.2426333333334 536.8362999999999 294.04375 537.2033333333333C264.8187208333335 558.5371458333333 247.7057916666668 592.8088833333333 248.1645833333334 628.9616666666666C247.8434291666667 649.6531708333332 252.5689833333334 670.1611583333333 261.9283333333334 688.6045833333333C320.7913041666668 616.7119291666666 407.6864458333334 573.3102374999999 500.5000000000001 569.3187499999999C500.5000000000001 578.4945833333331 495.9120833333334 587.6704166666666 495.9120833333334 596.8462499999999C495.9120833333334 597.2132833333333 495.9120833333334 597.5803166666666 495.9120833333334 597.9473499999999C495.9120833333334 660.2971375 547.1591125000001 711.5441666666666 609.5089000000002 711.5441666666666C609.8759333333335 711.5441666666666 610.2429666666668 711.5441666666666 610.6100000000001 711.5441666666666C642.1748666666668 712.0488375 672.4092375 698.6062416666666 693.1925000000001 674.8408333333334C722.2798916666668 674.749075 750.8626125000002 682.6861708333333 775.7750000000001 697.7804166666666C767.1038375000002 671.0787416666667 749.2109625 648.3226749999999 725.3079166666668 633.5495833333333C747.4216750000003 636.8987625 768.9848833333335 643.0924499999999 789.5387500000002 651.9012499999999C773.2516458333336 628.7322708333332 753.0648125000001 608.5454374999999 729.8958333333335 592.2583333333332z" />
    <glyph glyph-name="c-icon--instagram-circle"
      unicode="&#xE93B;"
      horiz-adv-x="1001" d="M417.0833333333334 500.5A83.41666666666667 83.41666666666667 0 0 1 583.9166666666667 500.5A83.41666666666667 83.41666666666667 0 0 1 417.0833333333334 500.5M695.5803020833334 648.0907766666667A82.85276999999999 82.85276999999999 0 0 1 648.0878570833333 695.5853070833332A138.50002833333332 138.50002833333332 0 0 1 601.62477375 704.2022487499999C575.2313233333334 705.4063683333333 567.3192525000001 705.6620404166666 500.5004170833333 705.6620404166666S425.7695108333333 705.4072025 399.3760604166667 704.2022487499999A138.50002833333332 138.50002833333332 0 0 1 352.9129770833333 695.5853070833332A82.85276999999999 82.85276999999999 0 0 1 305.4196979166667 648.0907766666667A138.4758375 138.4758375 0 0 1 296.7965 601.6218541666667C295.5948829166667 575.23591125 295.3400450000001 567.3213379166666 295.3400450000001 500.5S295.5948829166667 425.7665912499999 296.7965 399.3781458333333A138.49085250000002 138.49085250000002 0 0 1 305.4209491666667 352.9092233333332A82.83942333333333 82.83942333333333 0 0 1 352.9133941666667 305.4171954166666A138.36989833333334 138.36989833333334 0 0 1 399.3764775 296.8002537499998C425.7599179166667 295.5961341666664 433.68199875 295.3404620833332 500.5008341666667 295.3404620833332S575.2421674999999 295.5948829166665 601.6251908333334 296.8002537499998A138.36989833333334 138.36989833333334 0 0 1 648.0882741666667 305.4171954166666A82.83942333333333 82.83942333333333 0 0 1 695.5807191666668 352.9092233333332A138.49085250000002 138.49085250000002 0 0 1 704.2035000000001 399.3781458333333C705.4051170833334 425.7665912499999 705.6599550000001 433.6811645833333 705.6599550000001 500.5S705.4051170833334 575.23591125 704.2035000000001 601.6243566666667A138.47166666666666 138.47166666666666 0 0 1 695.5803020833334 648.0907766666667zM500.5 371.9945395833334A128.50712875000002 128.50712875000002 0 1 0 629.0054604166667 500.5A128.503375 128.503375 0 0 0 500.5 371.9945395833334zM634.0867866666667 604.0555354166667A30.029999999999998 30.029999999999998 0 1 0 664.1167866666667 634.0855354166667A30.026663333333328 30.026663333333328 0 0 0 634.0867866666667 604.0555354166665zM500.5 959.2916666666666A458.7916666666667 458.7916666666667 0 1 1 959.2916666666669 500.5A458.7916666666667 458.7916666666667 0 0 1 500.5 959.2916666666666zM749.2430779166667 397.3240104166666A183.75148458333337 183.75148458333337 0 0 0 737.6143775 336.5762399999999A127.99369916666666 127.99369916666666 0 0 0 664.4212575 263.3881250000001A183.67307291666668 183.67307291666668 0 0 0 603.6814116666667 251.7569220833333C576.9822391666668 250.5377875000001 568.45914125 250.25 500.5 250.25S424.0177608333334 250.5377875000001 397.3185883333334 251.7569220833333A183.67307291666668 183.67307291666668 0 0 0 336.5787425000001 263.3881250000001A127.99369916666666 127.99369916666666 0 0 0 263.3856225 336.5762400000001A183.75148458333337 183.75148458333337 0 0 0 251.7569220833334 397.3240104166668C250.5352850000001 424.0152583333334 250.25 432.5354366666667 250.25 500.5S250.5352850000001 576.9872441666666 251.7569220833334 603.6789091666667A183.74773083333335 183.74773083333335 0 0 0 263.3856225 664.4237599999999A127.97451333333332 127.97451333333332 0 0 0 336.5787425000001 737.6118749999999A183.66598249999998 183.66598249999998 0 0 0 397.3185883333334 749.2455804166666C424.0177608333334 750.4622125 432.54085875 750.75 500.5 750.75S576.9822391666668 750.4622125 603.6814116666667 749.2455804166666A183.66598249999998 183.66598249999998 0 0 0 664.4212575 737.611875A127.97451333333332 127.97451333333332 0 0 0 737.6143775 664.42376A183.74773083333335 183.74773083333335 0 0 0 749.2430779166667 603.6789091666667C750.4647150000001 576.9855758333333 750.75 568.4645633333333 750.75 500.5000000000001S750.4647150000001 424.0152583333334 749.2430779166667 397.3240104166666z" />
    <glyph glyph-name="c-icon--mail-circle"
      unicode="&#xE93C;"
      horiz-adv-x="1001" d="M304.4708333333334 643.8515416666667C304.7627916666667 643.8515416666667 305.1381666666667 643.8515416666667 305.4301250000001 643.517875L500.5 531.7395416666666L695.5281666666666 643.517875C695.8618333333334 643.517875 696.1955 643.517875 696.5291666666667 643.8515416666667L696.5291666666667 654.8208333333332L304.4708333333334 654.8208333333332L304.4708333333334 643.8515416666667zM500.5 473.3478749999999C495.74525 473.3478749999999 491.0739166666667 474.599125 486.9865 476.9765L304.4708333333334 581.6227083333333L304.4708333333334 346.1791666666667L696.5291666666667 346.1791666666667L696.5291666666667 581.6227083333333L513.9717916666667 476.9765C509.884375 474.599125 505.2130416666667 473.3478749999999 500.5 473.3478749999999zM500.5 959.2916666666666C248.8319166666667 959.2916666666666 41.7083333333333 752.1680833333332 41.7083333333333 500.5C41.7083333333333 248.8319166666667 248.8319166666667 41.7083333333333 500.5 41.7083333333333C752.1680833333334 41.7083333333333 959.2916666666669 248.8319166666667 959.2916666666669 500.5C959.2916666666669 752.1680833333332 752.1680833333334 959.2916666666666 500.5 959.2916666666666zM750.75 333.6666666666667C750.75 310.7687916666667 731.9395416666667 291.9583333333333 709.0416666666667 291.9583333333333L291.9583333333334 291.9583333333333C269.0604583333333 291.9583333333333 250.25 310.7687916666667 250.25 333.6666666666667L250.25 667.3333333333333C250.25 690.2312083333334 269.0604583333333 709.0416666666666 291.9583333333334 709.0416666666666L709.0416666666667 709.0416666666666C731.9395416666667 709.0416666666666 750.75 690.2312083333334 750.75 667.3333333333333L750.75 333.6666666666667z" />
    <glyph glyph-name="c-icon--youtube-circle"
      unicode="&#xE93D;"
      horiz-adv-x="1001" d="M454.6208333333334 429.5958333333333L575.575 500.5L454.6208333333334 571.4041666666667L454.6208333333334 429.5958333333333zM500.5 959.2916666666666A458.7916666666667 458.7916666666667 0 1 1 959.2916666666669 500.5A457.4703466666666 457.4703466666666 0 0 1 500.5 959.2916666666666zM725.725 383.7166666666666A53.577690833333335 53.577690833333335 0 0 0 684.0166666666667 342.0083333333332A1657.8157429166667 1657.8157429166667 0 0 0 500.5 333.6666666666667A1657.8157429166667 1657.8157429166667 0 0 0 316.9833333333334 342.0083333333332A59.97658333333334 59.97658333333334 0 0 0 275.275 383.7166666666666A821.6541666666667 821.6541666666667 0 0 0 275.275 617.2833333333333A59.97658333333334 59.97658333333334 0 0 0 316.9833333333334 658.9916666666666C354.5208333333334 663.1625 500.5 667.3333333333333 500.5 667.3333333333333A1657.8157429166667 1657.8157429166667 0 0 0 684.0166666666667 658.9916666666667A59.97658333333334 59.97658333333334 0 0 0 725.725 617.2833333333333A513.2723429166667 513.2723429166667 0 0 0 738.2375000000001 500.5A1107.5618720833334 1107.5618720833334 0 0 0 725.725 383.7166666666666z" />
    <glyph glyph-name="c-icon--star"
      unicode="&#xE93E;"
      horiz-adv-x="1001" d="M926.926 599.4321666666667C922.796875 612.1532083333333 911.3687916666667 621.245625 898.022125 622.37175L634.258625 645.019375L531.2390416666667 888.888C525.2330416666667 900.274375 513.3461666666667 907.4065 500.5 907.4065C487.6538333333334 907.4065 475.7669583333334 900.274375 469.7609583333333 888.888L366.741375 645.019375L102.977875 622.37175C85.83575 620.8702499999999 72.5725 606.3140416666668 72.5725 589.1302083333333C72.5725 579.4955833333333 76.7433333333333 570.3197499999999 84.0005833333333 563.9800833333334L284.2005833333334 390.5985416666666L224.0571666666667 132.7159166666666C221.0124583333334 119.6612083333333 226.1425833333334 105.980875 236.9867500000001 98.1397083333334C247.7475000000001 90.2151249999999 262.3454166666667 89.5894999999999 273.7735 96.5547916666667L500.5 233.2747083333333L727.2265 96.5547916666667C738.6545833333334 89.6729166666665 753.2107916666668 90.2985416666666 764.0132500000001 98.1397083333334C774.8574166666667 105.980875 779.9875416666667 119.6612083333333 776.9428333333334 132.7159166666666L716.9662500000001 390.5151249999999L917.16625 563.8966666666666C927.2596666666668 572.6971249999999 931.0968333333336 586.711125 926.926 599.4321666666667z" />
    <glyph glyph-name="c-icon--star-half-full"
      unicode="&#xE93F;"
      horiz-adv-x="1001" d="M926.926 599.4321666666667C922.796875 612.1532083333333 911.3687916666667 621.245625 898.022125 622.37175L634.258625 645.019375L531.2390416666667 888.888C525.2330416666667 900.274375 513.3461666666667 907.4065 500.5 907.4065C487.6538333333334 907.4065 475.7669583333334 900.274375 469.7609583333333 888.888L366.741375 645.019375L102.977875 622.37175C85.83575 620.8702499999999 72.5725 606.3140416666668 72.5725 589.1302083333333C72.5725 579.4955833333333 76.7433333333333 570.3197499999999 84.0005833333333 563.9800833333334L284.2005833333334 390.5985416666666L224.0571666666667 132.7159166666666C221.0124583333334 119.6612083333333 226.1425833333334 105.980875 236.9867500000001 98.1397083333334C247.7475000000001 90.2151249999999 262.3454166666667 89.5894999999999 273.7735 96.5547916666667L500.5 233.2747083333333L727.2265 96.5547916666667C738.6545833333334 89.6729166666665 753.2107916666668 90.2985416666666 764.0132500000001 98.1397083333334C774.8574166666667 105.980875 779.9875416666667 119.6612083333333 776.9428333333334 132.7159166666666L716.9662500000001 390.5151249999999L917.16625 563.8966666666666C927.2596666666668 572.6971249999999 931.0968333333336 586.711125 926.926 599.4321666666667zM658.0740833333334 427.802375C648.7314166666667 419.7109583333334 644.6022916666667 407.0733333333333 647.39675 395.019625L694.068375 194.4859583333333L517.7255416666667 300.8005C512.5120000000001 303.9286249999999 506.5894166666668 305.5969583333334 500.5 305.5969583333334L500.5 790.1226666666666L580.6217083333333 600.5999999999999C585.459875 589.213625 596.220625 581.4141666666667 608.5245833333333 580.3714583333333L813.6878750000001 562.7705416666666L658.0740833333334 427.802375z" />
    <glyph glyph-name="c-icon--star-o"
      unicode="&#xE940;"
      horiz-adv-x="1001" d="M744.4520416666667 91.7583333333332A33.074708333333334 33.074708333333334 0 0 0 727.2265 96.5547916666666L500.5 233.2747083333333L273.7735 96.5547916666667A33.033 33.033 0 0 0 236.9867500000001 98.1397083333334A33.36666666666667 33.36666666666667 0 0 0 224.0571666666667 132.7159166666667L284.03375 390.5151249999999L83.83375 563.938375A33.36666666666667 33.36666666666667 0 0 0 102.8110416666667 622.3300416666667L366.5745416666667 644.9776666666667L469.594125 888.8462916666667A34.78475 34.78475 0 0 0 531.0722083333334 888.8462916666667L634.0917916666667 644.9776666666667L897.8552916666667 622.3300416666667A33.36666666666667 33.36666666666667 0 0 0 916.8325833333334 563.938375L716.6325833333333 390.5151249999999L776.6091666666666 132.7159166666666A33.36666666666667 33.36666666666667 0 0 0 763.6795833333333 98.1397083333332A33.033 33.033 0 0 0 744.4520416666667 91.7583333333332zM500.5 305.5969583333334A33.36666666666667 33.36666666666667 0 0 0 517.7255416666667 300.8005000000001L694.068375 194.4859583333334L647.39675 395.0196250000002A33.36666666666667 33.36666666666667 0 0 0 658.0740833333333 427.8023750000001L813.6878750000001 562.6454166666667L608.5245833333333 580.2463333333335A33.36666666666667 33.36666666666667 0 0 0 580.6217083333333 600.4748750000001L500.5 790.1226666666666L420.3782916666667 600.5999999999999A33.36666666666667 33.36666666666667 0 0 0 392.4754166666667 580.3714583333333L187.312125 562.7705416666666L342.9259166666668 427.9275A33.36666666666667 33.36666666666667 0 0 0 353.6032500000001 395.14475L306.931625 194.4859583333333L483.2744583333334 300.8005A33.36666666666667 33.36666666666667 0 0 0 500.5 305.5969583333334z" />
    <glyph glyph-name="c-icon--file-text"
      unicode="&#xE941;"
      horiz-adv-x="1001" d="M667.3333333333334 492.1583333333334H333.6666666666667A33.36666666666667 33.36666666666667 0 1 1 333.6666666666667 425.4250000000001H667.3333333333334A33.36666666666667 33.36666666666667 0 0 1 667.3333333333334 492.1583333333334zM667.3333333333334 367.0333333333333H333.6666666666667A33.36666666666667 33.36666666666667 0 1 1 333.6666666666667 300.3H667.3333333333334A33.36666666666667 33.36666666666667 0 0 1 667.3333333333334 367.0333333333333zM500.5 241.9083333333333H333.6666666666667A33.36666666666667 33.36666666666667 0 1 1 333.6666666666667 175.175H500.5A33.36666666666667 33.36666666666667 0 0 1 500.5 241.9083333333333zM833.8747083333333 717.3833333333333A33.36666666666667 33.36666666666667 0 0 1 824.3652083333333 741.2405L615.8235416666665 949.7821666666666A33.36666666666667 33.36666666666667 0 0 1 591.465875 959.2916666666666L591.1739166666666 959.2916666666666H250.25A83.66691666666667 83.66691666666667 0 0 1 166.8333333333334 875.875V125.125A83.66691666666667 83.66691666666667 0 0 1 250.25 41.7083333333333H750.75A83.66691666666667 83.66691666666667 0 0 1 834.1666666666667 125.125V716.9245416666666zM720.2195 750.75H625.625V845.4279166666666zM750.75 108.4416666666667H250.25A16.891875000000002 16.891875000000002 0 0 0 233.5666666666667 125.125V875.875A16.891875000000002 16.891875000000002 0 0 0 250.25 892.5583333333333H558.8916666666668V717.3833333333333A33.36666666666667 33.36666666666667 0 0 1 592.2583333333334 684.0166666666667H767.4333333333335V125.125A16.891875000000002 16.891875000000002 0 0 0 750.75 108.4416666666667z" />
    <glyph glyph-name="c-icon--microphone"
      unicode="&#xE942;"
      horiz-adv-x="1001" d="M750.75 533.8666666666667A33.36666666666667 33.36666666666667 0 0 1 717.3833333333333 500.5A216.88333333333333 216.88333333333333 0 1 0 283.6166666666667 500.5A33.36666666666667 33.36666666666667 0 1 1 216.8833333333333 500.5A283.24129166666665 283.24129166666665 0 0 1 467.1333333333333 219.0521666666666V116.7833333333333H375.375A33.36666666666667 33.36666666666667 0 0 1 375.375 50.05H625.625A33.36666666666667 33.36666666666667 0 0 1 625.625 116.7833333333333H533.8666666666667V218.9270416666666A283.6166666666666 283.6166666666666 0 0 1 784.1166666666668 500.5A33.36666666666667 33.36666666666667 0 0 1 750.75 533.8666666666667zM500.5 333.6666666666667A167.33383333333333 167.33383333333333 0 0 1 667.3333333333334 500.5V792.4583333333333A166.83333333333334 166.83333333333334 0 0 1 333.6666666666667 792.4583333333333V500.5A167.33383333333333 167.33383333333333 0 0 1 500.5 333.6666666666667zM400.4000000000001 792.4583333333333A100.1 100.1 0 0 0 600.6 792.4583333333333V500.5A100.1 100.1 0 0 0 400.3999999999999 500.5z" />
    <glyph glyph-name="c-icon--clock"
      unicode="&#xE943;"
      horiz-adv-x="1001" d="M956.9142916666668 547.421875A458.7916666666667 458.7916666666667 0 0 1 719.1767916666668 903.903A442.90079166666663 442.90079166666663 0 0 1 679.0950833333335 923.2139583333334A459.8343750000001 459.8343750000001 0 0 1 321.9049166666669 923.2139583333334A442.90079166666663 442.90079166666663 0 0 1 281.8232083333335 903.903A458.7916666666667 458.7916666666667 0 1 1 956.914291666667 547.421875zM698.698 387.8875000000001A33.36666666666667 33.36666666666667 0 0 0 667.3333333333333 365.9489166666667A34.20083333333333 34.20083333333333 0 0 0 655.90525 367.9509166666667L469.594125 435.9355000000001A33.36666666666667 33.36666666666667 0 0 0 447.6555416666667 467.3001666666668V749.9575416666667A33.36666666666667 33.36666666666667 0 0 0 514.388875 749.9575416666667V490.5734166666667L678.7614166666667 430.5968333333333A33.36666666666667 33.36666666666667 0 0 0 698.698 387.8875000000001z" />
    </font>
</defs>
</svg>
