<svg width="500" height="405" viewBox="0 0 500 405" fill="none" xmlns="http://www.w3.org/2000/svg">
<path opacity="0.7" d="M250 129.816V362.279H130.664C126.047 362.279 123.045 357.42 125.109 353.291L238.235 127.039C241.166 121.177 250 123.263 250 129.816Z" fill="#007D8C"/>
<path opacity="0.8" d="M238.234 127.039L149.497 304.513C148.317 306.874 148.757 309.722 150.595 311.616L239.333 403.043C243.217 407.045 250 404.295 250 398.717V129.816C250 123.263 241.165 121.177 238.234 127.039Z" fill="#E4003A"/>
<path opacity="0.8" d="M493.777 52H6.22294C0.689985 52 -2.08093 58.6844 1.83146 62.5938L245.609 306.182C248.034 308.606 251.966 308.606 254.391 306.182L498.169 62.5938C502.081 58.6844 499.31 52 493.777 52Z" fill="#B1DADD"/>
<path opacity="0.8" d="M243.789 0H6.22294C0.689985 0 -2.08093 6.68958 1.83146 10.602L239.398 248.169C243.31 252.081 250 249.31 250 243.777V6.21049C250 2.78053 247.219 0 243.789 0Z" fill="#007D8C"/>
<path d="M242.156 119.195L198.246 207.016L242.932 251.703C245.54 254.311 250 252.464 250 248.775V121.047C250 116.678 244.11 115.288 242.156 119.195Z" fill="#007D8C"/>
</svg>
