<?xml version="1.0" encoding="UTF-8" standalone="no"?>
<svg width="100%" height="100%" viewBox="0 0 592 154" version="1.1" xmlns="http://www.w3.org/2000/svg" xmlns:xlink="http://www.w3.org/1999/xlink" xml:space="preserve">
  <title>Allianz Logo</title>
  <style>
    .allianz-logo {
      fill: #004a93;
    }
    @media screen and (-ms-high-contrast: active) {
      .allianz-logo {
        fill: buttonText;
      }
    }
  </style>
  <g id="g39870" class="allianz-logo">
    <path d="M53.569,82.664l-21.699,0l11.528,-37.499l10.171,37.499Zm-31.87,37.905l6.781,-22.852l27.802,0l6.781,22.852l23.055,0l-24.412,-86.728c-1.356,-5.696 -4.068,-7.527 -10.171,-7.527l-33.905,0l0,7.798l2.713,0c4.068,0 6.103,1.289 6.103,4.408c0,1.966 0,3.255 -2.035,7.934l-24.411,74.115"/>
    <path d="M115.276,120.569l0,-87.338c0,-4.543 -2.713,-6.917 -7.459,-6.917l-21.021,0l0,7.798l1.356,0c4.069,0 6.103,1.696 6.103,5.357l0,81.1" style="fill-rule:nonzero;"/>
    <path d="M153.249,120.569l0,-87.338c0,-4.543 -2.712,-6.917 -7.459,-6.917l-21.021,0l0,7.798l1.356,0c4.069,0 6.103,1.696 6.103,5.357l0,81.1" style="fill-rule:nonzero;"/>
    <path d="M191.9,34.655c0,-6.239 -4.746,-9.9 -12.205,-9.9c-8.138,0 -12.206,3.661 -12.206,9.9c0,6.374 4.068,10.103 12.206,10.103c7.459,0 12.205,-3.729 12.205,-10.103m-0.678,85.914l0,-63.605c0,-4.408 -2.712,-6.984 -6.781,-6.984l-21.021,0l0,7.662l1.356,0c4.069,0 5.425,1.695 5.425,5.561l0,57.366"/>
    <path d="M241.401,86.325l0,14.105c-4.069,4.068 -8.815,6.374 -12.884,6.374c-4.068,0 -6.103,-1.967 -6.103,-7.256c0,-5.831 1.357,-8.069 6.103,-9.9c3.391,-1.424 6.781,-2.305 12.884,-3.323m-29.836,-16.884l2.034,-0.814c5.425,-2.17 8.815,-2.983 12.884,-3.729c2.034,-0.271 4.747,-0.543 6.103,-0.543c6.781,0 8.815,2.238 8.815,8.476l0,1.763c-9.493,1.56 -12.206,2.103 -17.63,3.255c-2.713,0.678 -5.425,1.56 -8.138,2.713c-8.815,3.526 -12.883,10.307 -12.883,20.953c0,13.358 5.424,19.732 17.63,19.732c4.747,0 9.493,-1.085 12.884,-3.255c3.39,-1.559 4.746,-2.373 8.815,-6.102l0,2.169c0,4.408 2.034,6.51 6.103,6.51l20.343,0l0,-7.255l-0.678,0c-4.069,0 -6.103,-1.831 -6.103,-5.493l0,-34.651c0,-18.037 -6.103,-24.14 -23.734,-24.14c-6.102,0 -11.527,0.678 -16.952,1.967c-5.425,1.288 -8.137,2.238 -14.24,5.425"/>
    <path d="M300.395,120.569l0,-47.873c4.747,-4.408 8.137,-6.103 12.884,-6.103c4.746,0 6.103,2.034 6.103,9.222l0,44.754l21.02,0l0,-48.144c0,-9.901 -1.356,-14.173 -4.068,-17.902c-3.391,-3.662 -7.459,-5.357 -13.562,-5.357c-8.137,0 -14.24,2.984 -23.733,11.189l0,-3.798c0,-4.407 -2.034,-6.577 -6.103,-6.577l-20.343,0l0,7.662l0.678,0c4.069,0 6.103,1.695 6.103,5.561l0,57.366"/>
    <g id="g37643">
      <clipPath id="_clip1">
        <rect x="0.003" y="0" width="591.975" height="153.249"/>
      </clipPath>
      <g clip-path="url(#_clip1)">
        <path id="path37645" d="M405.503,107.071l-31.192,0l29.836,-42.584l0,-14.512l-44.754,0c-5.425,0 -7.459,2.17 -7.459,7.392l0,12.816l7.459,0l0,-1.424c0,-3.866 2.034,-5.425 6.102,-5.425l16.275,0l-30.515,42.584l0,14.647l54.248,0" style="fill-rule:nonzero;"/>
        <path id="path37647" d="M525.525,116.7l0,-79.88c0,-6.441 -2.712,-8.544 -8.815,-8.544l-18.308,0l0,8.816l2.034,0c3.39,0 4.746,1.288 4.746,5.221l0,74.387l20.343,0Zm10.85,0l19.664,0l0,-60.283c0,-6.103 -2.712,-8.544 -8.815,-8.544l-10.849,0l0,68.827Zm-42.042,0l0,-68.827l-10.85,0c-6.102,0 -8.815,2.441 -8.815,8.544l0,60.283l19.665,0Zm84.762,-40.143c0,37.363 -27.124,64.622 -63.741,64.622c-36.617,0 -63.741,-27.259 -63.741,-64.622c0,-37.363 27.124,-64.623 63.741,-64.623c36.617,0 63.741,27.26 63.741,64.623m12.883,0c0,-43.737 -32.548,-76.557 -76.624,-76.557c-43.398,0 -76.625,32.82 -76.625,76.557c0,43.872 33.227,76.692 76.625,76.692c44.076,0 76.624,-32.82 76.624,-76.692"/>
      </g>
    </g>
  </g>
</svg>